M48
; DRILL file {KiCad (5.1.10)-1} date 06/04/21 21:06:28
; FORMAT={-:-/ absolute / inch / decimal}
; #@! TF.CreationDate,2021-06-04T21:06:28+02:00
; #@! TF.GenerationSoftware,Kicad,Pcbnew,(5.1.10)-1
FMAT,2
INCH
T1C0.0394
%
G90
G05
T1
X3.3268Y-2.2638
X3.3268Y-2.3638
X3.3268Y-2.4638
X3.3268Y-2.5638
X3.3268Y-2.6638
X3.3268Y-2.7638
X3.3268Y-2.8638
X3.3268Y-2.9638
X4.2268Y-2.2638
X4.2268Y-2.3638
X4.2268Y-2.4638
X4.2268Y-2.5638
X4.2268Y-2.6638
X4.2268Y-2.7638
X4.2268Y-2.8638
X4.2268Y-2.9638
X4.3574Y-2.8813
X4.374Y-2.0512
X4.374Y-2.1512
X4.374Y-2.2512
X4.374Y-2.3512
X4.374Y-2.4512
X4.374Y-2.5512
X4.374Y-2.6512
X4.374Y-2.7512
X4.4574Y-2.8813
X4.5574Y-2.8813
X4.6574Y-2.8813
X4.7574Y-2.8813
X4.8574Y-2.8813
T0
M30
