%TF.GenerationSoftware,KiCad,Pcbnew,(5.1.10)-1*%
%TF.CreationDate,2021-06-04T21:06:00+02:00*%
%TF.ProjectId,Monitor,4d6f6e69-746f-4722-9e6b-696361645f70,rev?*%
%TF.SameCoordinates,Original*%
%TF.FileFunction,Copper,L1,Top*%
%TF.FilePolarity,Positive*%
%FSLAX46Y46*%
G04 Gerber Fmt 4.6, Leading zero omitted, Abs format (unit mm)*
G04 Created by KiCad (PCBNEW (5.1.10)-1) date 2021-06-04 21:06:00*
%MOMM*%
%LPD*%
G01*
G04 APERTURE LIST*
%TA.AperFunction,Profile*%
%ADD10C,0.050000*%
%TD*%
%TA.AperFunction,ComponentPad*%
%ADD11O,1.700000X1.700000*%
%TD*%
%TA.AperFunction,ComponentPad*%
%ADD12R,1.700000X1.700000*%
%TD*%
%TA.AperFunction,ComponentPad*%
%ADD13O,2.000000X1.600000*%
%TD*%
%TA.AperFunction,ComponentPad*%
%ADD14R,2.000000X2.000000*%
%TD*%
%TA.AperFunction,SMDPad,CuDef*%
%ADD15R,1.000000X1.500000*%
%TD*%
%TA.AperFunction,Conductor*%
%ADD16C,0.250000*%
%TD*%
%TA.AperFunction,Conductor*%
%ADD17C,0.254000*%
%TD*%
%TA.AperFunction,Conductor*%
%ADD18C,0.100000*%
%TD*%
G04 APERTURE END LIST*
D10*
X82000000Y-85000000D02*
X82000000Y-40000000D01*
X126000000Y-85000000D02*
X82000000Y-85000000D01*
X126000000Y-40000000D02*
X126000000Y-85000000D01*
X82000000Y-40000000D02*
X126000000Y-40000000D01*
D11*
%TO.P,J2,4*%
%TO.N,sda*%
X111100000Y-59720000D03*
%TO.P,J2,7*%
%TO.N,Net-(J2-Pad7)*%
X111100000Y-67340000D03*
%TO.P,J2,5*%
%TO.N,GND*%
X111100000Y-62260000D03*
%TO.P,J2,2*%
X111100000Y-54640000D03*
%TO.P,J2,3*%
%TO.N,scl*%
X111100000Y-57180000D03*
%TO.P,J2,6*%
%TO.N,Net-(J2-Pad6)*%
X111100000Y-64800000D03*
%TO.P,J2,8*%
%TO.N,Net-(J2-Pad8)*%
X111100000Y-69880000D03*
D12*
%TO.P,J2,1*%
%TO.N,+5V*%
X111100000Y-52100000D03*
%TD*%
D11*
%TO.P,J1,3*%
%TO.N,scl*%
X118297389Y-73184671D03*
%TO.P,J1,6*%
%TO.N,Net-(J1-Pad6)*%
X110677389Y-73184671D03*
%TO.P,J1,2*%
%TO.N,GND*%
X120837389Y-73184671D03*
%TO.P,J1,4*%
%TO.N,sda*%
X115757389Y-73184671D03*
%TO.P,J1,5*%
%TO.N,Net-(J1-Pad5)*%
X113217389Y-73184671D03*
D12*
%TO.P,J1,1*%
%TO.N,+3V3*%
X123377389Y-73184671D03*
%TD*%
D13*
%TO.P,U1,16*%
%TO.N,Net-(U1-Pad16)*%
X107360000Y-57500000D03*
%TO.P,U1,15*%
%TO.N,Net-(U1-Pad15)*%
X107360000Y-60040000D03*
%TO.P,U1,14*%
%TO.N,scl*%
X107360000Y-62580000D03*
%TO.P,U1,13*%
%TO.N,sda*%
X107360000Y-65120000D03*
%TO.P,U1,12*%
%TO.N,Net-(U1-Pad12)*%
X107360000Y-67660000D03*
%TO.P,U1,11*%
%TO.N,din*%
X107360000Y-70200000D03*
%TO.P,U1,10*%
%TO.N,GND*%
X107360000Y-72740000D03*
%TO.P,U1,9*%
%TO.N,+5V*%
X107360000Y-75280000D03*
%TO.P,U1,8*%
%TO.N,+3V3*%
X84500000Y-75280000D03*
%TO.P,U1,7*%
%TO.N,Net-(U1-Pad7)*%
X84500000Y-72740000D03*
%TO.P,U1,6*%
%TO.N,Net-(U1-Pad6)*%
X84500000Y-70200000D03*
%TO.P,U1,5*%
%TO.N,Net-(U1-Pad5)*%
X84500000Y-67660000D03*
%TO.P,U1,4*%
%TO.N,Net-(U1-Pad4)*%
X84500000Y-65120000D03*
%TO.P,U1,3*%
%TO.N,Net-(U1-Pad3)*%
X84500000Y-62580000D03*
D14*
%TO.P,U1,1*%
%TO.N,Net-(U1-Pad1)*%
X84500000Y-57500000D03*
D13*
%TO.P,U1,2*%
%TO.N,Net-(U1-Pad2)*%
X84500000Y-60040000D03*
%TD*%
D15*
%TO.P,D1,1*%
%TO.N,+5V*%
X122100000Y-42050000D03*
%TO.P,D1,2*%
%TO.N,Net-(D1-Pad2)*%
X118900000Y-42050000D03*
%TO.P,D1,4*%
%TO.N,din*%
X122100000Y-46950000D03*
%TO.P,D1,3*%
%TO.N,GND*%
X118900000Y-46950000D03*
%TD*%
D16*
%TO.N,din*%
X122100000Y-58079002D02*
X122100000Y-46950000D01*
X111474003Y-68704999D02*
X122100000Y-58079002D01*
X108855001Y-68704999D02*
X111474003Y-68704999D01*
X107360000Y-70200000D02*
X108855001Y-68704999D01*
%TO.N,+5V*%
X111100000Y-52100000D02*
X109900000Y-52100000D01*
X109900000Y-52100000D02*
X105500000Y-56500000D01*
X105500000Y-73420000D02*
X107360000Y-75280000D01*
X105500000Y-56500000D02*
X105500000Y-73420000D01*
X111300000Y-52100000D02*
X111100000Y-52100000D01*
X121350000Y-42050000D02*
X111300000Y-52100000D01*
X122100000Y-42050000D02*
X121350000Y-42050000D01*
%TO.N,+3V3*%
X84500000Y-75280000D02*
X91220000Y-82000000D01*
X91220000Y-82000000D02*
X120500000Y-82000000D01*
X123377389Y-79122611D02*
X123377389Y-73184671D01*
X120500000Y-82000000D02*
X123377389Y-79122611D01*
%TD*%
D17*
%TO.N,GND*%
X125340001Y-84340000D02*
X82660000Y-84340000D01*
X82660000Y-60040000D01*
X82858057Y-60040000D01*
X82885764Y-60321309D01*
X82967818Y-60591808D01*
X83101068Y-60841101D01*
X83280392Y-61059608D01*
X83498899Y-61238932D01*
X83631858Y-61310000D01*
X83498899Y-61381068D01*
X83280392Y-61560392D01*
X83101068Y-61778899D01*
X82967818Y-62028192D01*
X82885764Y-62298691D01*
X82858057Y-62580000D01*
X82885764Y-62861309D01*
X82967818Y-63131808D01*
X83101068Y-63381101D01*
X83280392Y-63599608D01*
X83498899Y-63778932D01*
X83631858Y-63850000D01*
X83498899Y-63921068D01*
X83280392Y-64100392D01*
X83101068Y-64318899D01*
X82967818Y-64568192D01*
X82885764Y-64838691D01*
X82858057Y-65120000D01*
X82885764Y-65401309D01*
X82967818Y-65671808D01*
X83101068Y-65921101D01*
X83280392Y-66139608D01*
X83498899Y-66318932D01*
X83631858Y-66390000D01*
X83498899Y-66461068D01*
X83280392Y-66640392D01*
X83101068Y-66858899D01*
X82967818Y-67108192D01*
X82885764Y-67378691D01*
X82858057Y-67660000D01*
X82885764Y-67941309D01*
X82967818Y-68211808D01*
X83101068Y-68461101D01*
X83280392Y-68679608D01*
X83498899Y-68858932D01*
X83631858Y-68930000D01*
X83498899Y-69001068D01*
X83280392Y-69180392D01*
X83101068Y-69398899D01*
X82967818Y-69648192D01*
X82885764Y-69918691D01*
X82858057Y-70200000D01*
X82885764Y-70481309D01*
X82967818Y-70751808D01*
X83101068Y-71001101D01*
X83280392Y-71219608D01*
X83498899Y-71398932D01*
X83631858Y-71470000D01*
X83498899Y-71541068D01*
X83280392Y-71720392D01*
X83101068Y-71938899D01*
X82967818Y-72188192D01*
X82885764Y-72458691D01*
X82858057Y-72740000D01*
X82885764Y-73021309D01*
X82967818Y-73291808D01*
X83101068Y-73541101D01*
X83280392Y-73759608D01*
X83498899Y-73938932D01*
X83631858Y-74010000D01*
X83498899Y-74081068D01*
X83280392Y-74260392D01*
X83101068Y-74478899D01*
X82967818Y-74728192D01*
X82885764Y-74998691D01*
X82858057Y-75280000D01*
X82885764Y-75561309D01*
X82967818Y-75831808D01*
X83101068Y-76081101D01*
X83280392Y-76299608D01*
X83498899Y-76478932D01*
X83748192Y-76612182D01*
X84018691Y-76694236D01*
X84229508Y-76715000D01*
X84770492Y-76715000D01*
X84852156Y-76706957D01*
X90656201Y-82511003D01*
X90679999Y-82540001D01*
X90708997Y-82563799D01*
X90795723Y-82634974D01*
X90927753Y-82705546D01*
X91071014Y-82749003D01*
X91182667Y-82760000D01*
X91182676Y-82760000D01*
X91219999Y-82763676D01*
X91257322Y-82760000D01*
X120462678Y-82760000D01*
X120500000Y-82763676D01*
X120537322Y-82760000D01*
X120537333Y-82760000D01*
X120648986Y-82749003D01*
X120792247Y-82705546D01*
X120924276Y-82634974D01*
X121040001Y-82540001D01*
X121063804Y-82510997D01*
X123888393Y-79686409D01*
X123917390Y-79662612D01*
X124012363Y-79546887D01*
X124082935Y-79414858D01*
X124126392Y-79271597D01*
X124137389Y-79159944D01*
X124137389Y-79159943D01*
X124141066Y-79122611D01*
X124137389Y-79085278D01*
X124137389Y-74672743D01*
X124227389Y-74672743D01*
X124351871Y-74660483D01*
X124471569Y-74624173D01*
X124581883Y-74565208D01*
X124678574Y-74485856D01*
X124757926Y-74389165D01*
X124816891Y-74278851D01*
X124853201Y-74159153D01*
X124865461Y-74034671D01*
X124865461Y-72334671D01*
X124853201Y-72210189D01*
X124816891Y-72090491D01*
X124757926Y-71980177D01*
X124678574Y-71883486D01*
X124581883Y-71804134D01*
X124471569Y-71745169D01*
X124351871Y-71708859D01*
X124227389Y-71696599D01*
X122527389Y-71696599D01*
X122402907Y-71708859D01*
X122283209Y-71745169D01*
X122172895Y-71804134D01*
X122076204Y-71883486D01*
X121996852Y-71980177D01*
X121937887Y-72090491D01*
X121913423Y-72171137D01*
X121837658Y-72087083D01*
X121604309Y-71913030D01*
X121341488Y-71787846D01*
X121194279Y-71743195D01*
X120964389Y-71864516D01*
X120964389Y-73057671D01*
X120984389Y-73057671D01*
X120984389Y-73311671D01*
X120964389Y-73311671D01*
X120964389Y-74504826D01*
X121194279Y-74626147D01*
X121341488Y-74581496D01*
X121604309Y-74456312D01*
X121837658Y-74282259D01*
X121913423Y-74198205D01*
X121937887Y-74278851D01*
X121996852Y-74389165D01*
X122076204Y-74485856D01*
X122172895Y-74565208D01*
X122283209Y-74624173D01*
X122402907Y-74660483D01*
X122527389Y-74672743D01*
X122617390Y-74672743D01*
X122617389Y-78807809D01*
X120185199Y-81240000D01*
X91534802Y-81240000D01*
X86054159Y-75759358D01*
X86114236Y-75561309D01*
X86141943Y-75280000D01*
X86114236Y-74998691D01*
X86032182Y-74728192D01*
X85898932Y-74478899D01*
X85719608Y-74260392D01*
X85501101Y-74081068D01*
X85368142Y-74010000D01*
X85501101Y-73938932D01*
X85719608Y-73759608D01*
X85898932Y-73541101D01*
X86032182Y-73291808D01*
X86114236Y-73021309D01*
X86141943Y-72740000D01*
X86114236Y-72458691D01*
X86032182Y-72188192D01*
X85898932Y-71938899D01*
X85719608Y-71720392D01*
X85501101Y-71541068D01*
X85368142Y-71470000D01*
X85501101Y-71398932D01*
X85719608Y-71219608D01*
X85898932Y-71001101D01*
X86032182Y-70751808D01*
X86114236Y-70481309D01*
X86141943Y-70200000D01*
X86114236Y-69918691D01*
X86032182Y-69648192D01*
X85898932Y-69398899D01*
X85719608Y-69180392D01*
X85501101Y-69001068D01*
X85368142Y-68930000D01*
X85501101Y-68858932D01*
X85719608Y-68679608D01*
X85898932Y-68461101D01*
X86032182Y-68211808D01*
X86114236Y-67941309D01*
X86141943Y-67660000D01*
X86114236Y-67378691D01*
X86032182Y-67108192D01*
X85898932Y-66858899D01*
X85719608Y-66640392D01*
X85501101Y-66461068D01*
X85368142Y-66390000D01*
X85501101Y-66318932D01*
X85719608Y-66139608D01*
X85898932Y-65921101D01*
X86032182Y-65671808D01*
X86114236Y-65401309D01*
X86141943Y-65120000D01*
X86114236Y-64838691D01*
X86032182Y-64568192D01*
X85898932Y-64318899D01*
X85719608Y-64100392D01*
X85501101Y-63921068D01*
X85368142Y-63850000D01*
X85501101Y-63778932D01*
X85719608Y-63599608D01*
X85898932Y-63381101D01*
X86032182Y-63131808D01*
X86114236Y-62861309D01*
X86141943Y-62580000D01*
X86114236Y-62298691D01*
X86032182Y-62028192D01*
X85898932Y-61778899D01*
X85719608Y-61560392D01*
X85501101Y-61381068D01*
X85368142Y-61310000D01*
X85501101Y-61238932D01*
X85719608Y-61059608D01*
X85898932Y-60841101D01*
X86032182Y-60591808D01*
X86114236Y-60321309D01*
X86141943Y-60040000D01*
X86114236Y-59758691D01*
X86032182Y-59488192D01*
X85898932Y-59238899D01*
X85766524Y-59077559D01*
X85854494Y-59030537D01*
X85951185Y-58951185D01*
X86030537Y-58854494D01*
X86089502Y-58744180D01*
X86125812Y-58624482D01*
X86138072Y-58500000D01*
X86138072Y-56500000D01*
X86125812Y-56375518D01*
X86089502Y-56255820D01*
X86030537Y-56145506D01*
X86015350Y-56127000D01*
X104837618Y-56127000D01*
X104794455Y-56207753D01*
X104794454Y-56207754D01*
X104750997Y-56351015D01*
X104740000Y-56462668D01*
X104740000Y-56462678D01*
X104736324Y-56500000D01*
X104740000Y-56537322D01*
X104740001Y-73382667D01*
X104736324Y-73420000D01*
X104750998Y-73568985D01*
X104794454Y-73712246D01*
X104865026Y-73844276D01*
X104936201Y-73931002D01*
X104960000Y-73960001D01*
X104988998Y-73983799D01*
X105805841Y-74800642D01*
X105745764Y-74998691D01*
X105718057Y-75280000D01*
X105745764Y-75561309D01*
X105827818Y-75831808D01*
X105961068Y-76081101D01*
X106140392Y-76299608D01*
X106358899Y-76478932D01*
X106608192Y-76612182D01*
X106878691Y-76694236D01*
X107089508Y-76715000D01*
X107630492Y-76715000D01*
X107841309Y-76694236D01*
X108111808Y-76612182D01*
X108361101Y-76478932D01*
X108579608Y-76299608D01*
X108758932Y-76081101D01*
X108892182Y-75831808D01*
X108974236Y-75561309D01*
X109001943Y-75280000D01*
X108974236Y-74998691D01*
X108892182Y-74728192D01*
X108758932Y-74478899D01*
X108579608Y-74260392D01*
X108361101Y-74081068D01*
X108231655Y-74011878D01*
X108249227Y-74004430D01*
X108482662Y-73845673D01*
X108680639Y-73644425D01*
X108835551Y-73408421D01*
X108941444Y-73146730D01*
X108951904Y-73089039D01*
X108924089Y-73038411D01*
X109192389Y-73038411D01*
X109192389Y-73330931D01*
X109249457Y-73617829D01*
X109361399Y-73888082D01*
X109523914Y-74131303D01*
X109730757Y-74338146D01*
X109973978Y-74500661D01*
X110244231Y-74612603D01*
X110531129Y-74669671D01*
X110823649Y-74669671D01*
X111110547Y-74612603D01*
X111380800Y-74500661D01*
X111624021Y-74338146D01*
X111830864Y-74131303D01*
X111947389Y-73956911D01*
X112063914Y-74131303D01*
X112270757Y-74338146D01*
X112513978Y-74500661D01*
X112784231Y-74612603D01*
X113071129Y-74669671D01*
X113363649Y-74669671D01*
X113650547Y-74612603D01*
X113920800Y-74500661D01*
X114164021Y-74338146D01*
X114370864Y-74131303D01*
X114487389Y-73956911D01*
X114603914Y-74131303D01*
X114810757Y-74338146D01*
X115053978Y-74500661D01*
X115324231Y-74612603D01*
X115611129Y-74669671D01*
X115903649Y-74669671D01*
X116190547Y-74612603D01*
X116460800Y-74500661D01*
X116704021Y-74338146D01*
X116910864Y-74131303D01*
X117027389Y-73956911D01*
X117143914Y-74131303D01*
X117350757Y-74338146D01*
X117593978Y-74500661D01*
X117864231Y-74612603D01*
X118151129Y-74669671D01*
X118443649Y-74669671D01*
X118730547Y-74612603D01*
X119000800Y-74500661D01*
X119244021Y-74338146D01*
X119450864Y-74131303D01*
X119572584Y-73949137D01*
X119642211Y-74066026D01*
X119837120Y-74282259D01*
X120070469Y-74456312D01*
X120333290Y-74581496D01*
X120480499Y-74626147D01*
X120710389Y-74504826D01*
X120710389Y-73311671D01*
X120690389Y-73311671D01*
X120690389Y-73057671D01*
X120710389Y-73057671D01*
X120710389Y-71864516D01*
X120480499Y-71743195D01*
X120333290Y-71787846D01*
X120070469Y-71913030D01*
X119837120Y-72087083D01*
X119642211Y-72303316D01*
X119572584Y-72420205D01*
X119450864Y-72238039D01*
X119244021Y-72031196D01*
X119000800Y-71868681D01*
X118730547Y-71756739D01*
X118443649Y-71699671D01*
X118151129Y-71699671D01*
X117864231Y-71756739D01*
X117593978Y-71868681D01*
X117350757Y-72031196D01*
X117143914Y-72238039D01*
X117027389Y-72412431D01*
X116910864Y-72238039D01*
X116704021Y-72031196D01*
X116460800Y-71868681D01*
X116190547Y-71756739D01*
X115903649Y-71699671D01*
X115611129Y-71699671D01*
X115324231Y-71756739D01*
X115053978Y-71868681D01*
X114810757Y-72031196D01*
X114603914Y-72238039D01*
X114487389Y-72412431D01*
X114370864Y-72238039D01*
X114164021Y-72031196D01*
X113920800Y-71868681D01*
X113650547Y-71756739D01*
X113363649Y-71699671D01*
X113071129Y-71699671D01*
X112784231Y-71756739D01*
X112513978Y-71868681D01*
X112270757Y-72031196D01*
X112063914Y-72238039D01*
X111947389Y-72412431D01*
X111830864Y-72238039D01*
X111624021Y-72031196D01*
X111380800Y-71868681D01*
X111110547Y-71756739D01*
X110823649Y-71699671D01*
X110531129Y-71699671D01*
X110244231Y-71756739D01*
X109973978Y-71868681D01*
X109730757Y-72031196D01*
X109523914Y-72238039D01*
X109361399Y-72481260D01*
X109249457Y-72751513D01*
X109192389Y-73038411D01*
X108924089Y-73038411D01*
X108829915Y-72867000D01*
X107487000Y-72867000D01*
X107487000Y-72887000D01*
X107233000Y-72887000D01*
X107233000Y-72867000D01*
X107213000Y-72867000D01*
X107213000Y-72613000D01*
X107233000Y-72613000D01*
X107233000Y-72593000D01*
X107487000Y-72593000D01*
X107487000Y-72613000D01*
X108829915Y-72613000D01*
X108951904Y-72390961D01*
X108941444Y-72333270D01*
X108835551Y-72071579D01*
X108680639Y-71835575D01*
X108482662Y-71634327D01*
X108249227Y-71475570D01*
X108231655Y-71468122D01*
X108361101Y-71398932D01*
X108579608Y-71219608D01*
X108758932Y-71001101D01*
X108892182Y-70751808D01*
X108974236Y-70481309D01*
X109001943Y-70200000D01*
X108974236Y-69918691D01*
X108914159Y-69720642D01*
X109169803Y-69464999D01*
X109668456Y-69464999D01*
X109615000Y-69733740D01*
X109615000Y-70026260D01*
X109672068Y-70313158D01*
X109784010Y-70583411D01*
X109946525Y-70826632D01*
X110153368Y-71033475D01*
X110396589Y-71195990D01*
X110666842Y-71307932D01*
X110953740Y-71365000D01*
X111246260Y-71365000D01*
X111533158Y-71307932D01*
X111803411Y-71195990D01*
X112046632Y-71033475D01*
X112253475Y-70826632D01*
X112415990Y-70583411D01*
X112527932Y-70313158D01*
X112585000Y-70026260D01*
X112585000Y-69733740D01*
X112527932Y-69446842D01*
X112415990Y-69176589D01*
X112280295Y-68973508D01*
X122611004Y-58642800D01*
X122640001Y-58619003D01*
X122683069Y-58566525D01*
X122734974Y-58503279D01*
X122805546Y-58371249D01*
X122817004Y-58333475D01*
X122849003Y-58227988D01*
X122860000Y-58116335D01*
X122860000Y-58116326D01*
X122863676Y-58079003D01*
X122860000Y-58041680D01*
X122860000Y-48281046D01*
X122954494Y-48230537D01*
X123051185Y-48151185D01*
X123130537Y-48054494D01*
X123189502Y-47944180D01*
X123225812Y-47824482D01*
X123238072Y-47700000D01*
X123238072Y-46200000D01*
X123225812Y-46075518D01*
X123189502Y-45955820D01*
X123130537Y-45845506D01*
X123051185Y-45748815D01*
X122954494Y-45669463D01*
X122844180Y-45610498D01*
X122724482Y-45574188D01*
X122600000Y-45561928D01*
X121600000Y-45561928D01*
X121475518Y-45574188D01*
X121355820Y-45610498D01*
X121245506Y-45669463D01*
X121148815Y-45748815D01*
X121069463Y-45845506D01*
X121010498Y-45955820D01*
X120974188Y-46075518D01*
X120961928Y-46200000D01*
X120961928Y-47700000D01*
X120974188Y-47824482D01*
X121010498Y-47944180D01*
X121069463Y-48054494D01*
X121148815Y-48151185D01*
X121245506Y-48230537D01*
X121340001Y-48281046D01*
X121340000Y-57764200D01*
X112431110Y-66673091D01*
X112415990Y-66636589D01*
X112253475Y-66393368D01*
X112046632Y-66186525D01*
X111872240Y-66070000D01*
X112046632Y-65953475D01*
X112253475Y-65746632D01*
X112415990Y-65503411D01*
X112527932Y-65233158D01*
X112585000Y-64946260D01*
X112585000Y-64653740D01*
X112527932Y-64366842D01*
X112415990Y-64096589D01*
X112253475Y-63853368D01*
X112046632Y-63646525D01*
X111864466Y-63524805D01*
X111981355Y-63455178D01*
X112197588Y-63260269D01*
X112371641Y-63026920D01*
X112496825Y-62764099D01*
X112541476Y-62616890D01*
X112420155Y-62387000D01*
X111227000Y-62387000D01*
X111227000Y-62407000D01*
X110973000Y-62407000D01*
X110973000Y-62387000D01*
X109779845Y-62387000D01*
X109658524Y-62616890D01*
X109703175Y-62764099D01*
X109828359Y-63026920D01*
X110002412Y-63260269D01*
X110218645Y-63455178D01*
X110335534Y-63524805D01*
X110153368Y-63646525D01*
X109946525Y-63853368D01*
X109784010Y-64096589D01*
X109672068Y-64366842D01*
X109615000Y-64653740D01*
X109615000Y-64946260D01*
X109672068Y-65233158D01*
X109784010Y-65503411D01*
X109946525Y-65746632D01*
X110153368Y-65953475D01*
X110327760Y-66070000D01*
X110153368Y-66186525D01*
X109946525Y-66393368D01*
X109784010Y-66636589D01*
X109672068Y-66906842D01*
X109615000Y-67193740D01*
X109615000Y-67486260D01*
X109672068Y-67773158D01*
X109743247Y-67944999D01*
X108973117Y-67944999D01*
X108974236Y-67941309D01*
X109001943Y-67660000D01*
X108974236Y-67378691D01*
X108892182Y-67108192D01*
X108758932Y-66858899D01*
X108579608Y-66640392D01*
X108361101Y-66461068D01*
X108228142Y-66390000D01*
X108361101Y-66318932D01*
X108579608Y-66139608D01*
X108758932Y-65921101D01*
X108892182Y-65671808D01*
X108974236Y-65401309D01*
X109001943Y-65120000D01*
X108974236Y-64838691D01*
X108892182Y-64568192D01*
X108758932Y-64318899D01*
X108579608Y-64100392D01*
X108361101Y-63921068D01*
X108228142Y-63850000D01*
X108361101Y-63778932D01*
X108579608Y-63599608D01*
X108758932Y-63381101D01*
X108892182Y-63131808D01*
X108974236Y-62861309D01*
X109001943Y-62580000D01*
X108974236Y-62298691D01*
X108892182Y-62028192D01*
X108758932Y-61778899D01*
X108579608Y-61560392D01*
X108361101Y-61381068D01*
X108228142Y-61310000D01*
X108361101Y-61238932D01*
X108579608Y-61059608D01*
X108758932Y-60841101D01*
X108892182Y-60591808D01*
X108974236Y-60321309D01*
X109001943Y-60040000D01*
X108974236Y-59758691D01*
X108892182Y-59488192D01*
X108758932Y-59238899D01*
X108579608Y-59020392D01*
X108361101Y-58841068D01*
X108228142Y-58770000D01*
X108361101Y-58698932D01*
X108579608Y-58519608D01*
X108758932Y-58301101D01*
X108892182Y-58051808D01*
X108974236Y-57781309D01*
X109001943Y-57500000D01*
X108974236Y-57218691D01*
X108918133Y-57033740D01*
X109615000Y-57033740D01*
X109615000Y-57326260D01*
X109672068Y-57613158D01*
X109784010Y-57883411D01*
X109946525Y-58126632D01*
X110153368Y-58333475D01*
X110327760Y-58450000D01*
X110153368Y-58566525D01*
X109946525Y-58773368D01*
X109784010Y-59016589D01*
X109672068Y-59286842D01*
X109615000Y-59573740D01*
X109615000Y-59866260D01*
X109672068Y-60153158D01*
X109784010Y-60423411D01*
X109946525Y-60666632D01*
X110153368Y-60873475D01*
X110335534Y-60995195D01*
X110218645Y-61064822D01*
X110002412Y-61259731D01*
X109828359Y-61493080D01*
X109703175Y-61755901D01*
X109658524Y-61903110D01*
X109779845Y-62133000D01*
X110973000Y-62133000D01*
X110973000Y-62113000D01*
X111227000Y-62113000D01*
X111227000Y-62133000D01*
X112420155Y-62133000D01*
X112541476Y-61903110D01*
X112496825Y-61755901D01*
X112371641Y-61493080D01*
X112197588Y-61259731D01*
X111981355Y-61064822D01*
X111864466Y-60995195D01*
X112046632Y-60873475D01*
X112253475Y-60666632D01*
X112415990Y-60423411D01*
X112527932Y-60153158D01*
X112585000Y-59866260D01*
X112585000Y-59573740D01*
X112527932Y-59286842D01*
X112415990Y-59016589D01*
X112253475Y-58773368D01*
X112046632Y-58566525D01*
X111872240Y-58450000D01*
X112046632Y-58333475D01*
X112253475Y-58126632D01*
X112415990Y-57883411D01*
X112527932Y-57613158D01*
X112585000Y-57326260D01*
X112585000Y-57033740D01*
X112527932Y-56746842D01*
X112415990Y-56476589D01*
X112253475Y-56233368D01*
X112046632Y-56026525D01*
X111864466Y-55904805D01*
X111981355Y-55835178D01*
X112197588Y-55640269D01*
X112371641Y-55406920D01*
X112496825Y-55144099D01*
X112541476Y-54996890D01*
X112420155Y-54767000D01*
X111227000Y-54767000D01*
X111227000Y-54787000D01*
X110973000Y-54787000D01*
X110973000Y-54767000D01*
X109779845Y-54767000D01*
X109658524Y-54996890D01*
X109703175Y-55144099D01*
X109828359Y-55406920D01*
X110002412Y-55640269D01*
X110218645Y-55835178D01*
X110335534Y-55904805D01*
X110153368Y-56026525D01*
X109946525Y-56233368D01*
X109784010Y-56476589D01*
X109672068Y-56746842D01*
X109615000Y-57033740D01*
X108918133Y-57033740D01*
X108892182Y-56948192D01*
X108758932Y-56698899D01*
X108579608Y-56480392D01*
X108361101Y-56301068D01*
X108111808Y-56167818D01*
X107977247Y-56127000D01*
X109000000Y-56127000D01*
X109024776Y-56124560D01*
X109048601Y-56117333D01*
X109070557Y-56105597D01*
X109089803Y-56089803D01*
X109105597Y-56070557D01*
X109117333Y-56048601D01*
X109124560Y-56024776D01*
X109127000Y-56000000D01*
X109127000Y-53947802D01*
X109742381Y-53332420D01*
X109798815Y-53401185D01*
X109895506Y-53480537D01*
X110005820Y-53539502D01*
X110086466Y-53563966D01*
X110002412Y-53639731D01*
X109828359Y-53873080D01*
X109703175Y-54135901D01*
X109658524Y-54283110D01*
X109779845Y-54513000D01*
X110973000Y-54513000D01*
X110973000Y-54493000D01*
X111227000Y-54493000D01*
X111227000Y-54513000D01*
X112420155Y-54513000D01*
X112541476Y-54283110D01*
X112496825Y-54135901D01*
X112371641Y-53873080D01*
X112197588Y-53639731D01*
X112113534Y-53563966D01*
X112194180Y-53539502D01*
X112304494Y-53480537D01*
X112401185Y-53401185D01*
X112480537Y-53304494D01*
X112539502Y-53194180D01*
X112575812Y-53074482D01*
X112588072Y-52950000D01*
X112588072Y-51886729D01*
X116774801Y-47700000D01*
X117761928Y-47700000D01*
X117774188Y-47824482D01*
X117810498Y-47944180D01*
X117869463Y-48054494D01*
X117948815Y-48151185D01*
X118045506Y-48230537D01*
X118155820Y-48289502D01*
X118275518Y-48325812D01*
X118400000Y-48338072D01*
X118614250Y-48335000D01*
X118773000Y-48176250D01*
X118773000Y-47077000D01*
X119027000Y-47077000D01*
X119027000Y-48176250D01*
X119185750Y-48335000D01*
X119400000Y-48338072D01*
X119524482Y-48325812D01*
X119644180Y-48289502D01*
X119754494Y-48230537D01*
X119851185Y-48151185D01*
X119930537Y-48054494D01*
X119989502Y-47944180D01*
X120025812Y-47824482D01*
X120038072Y-47700000D01*
X120035000Y-47235750D01*
X119876250Y-47077000D01*
X119027000Y-47077000D01*
X118773000Y-47077000D01*
X117923750Y-47077000D01*
X117765000Y-47235750D01*
X117761928Y-47700000D01*
X116774801Y-47700000D01*
X117787776Y-46687026D01*
X117923750Y-46823000D01*
X118773000Y-46823000D01*
X118773000Y-46803000D01*
X119027000Y-46803000D01*
X119027000Y-46823000D01*
X119876250Y-46823000D01*
X120035000Y-46664250D01*
X120038072Y-46200000D01*
X120025812Y-46075518D01*
X119989502Y-45955820D01*
X119930537Y-45845506D01*
X119851185Y-45748815D01*
X119754494Y-45669463D01*
X119644180Y-45610498D01*
X119524482Y-45574188D01*
X119400000Y-45561928D01*
X119185750Y-45565000D01*
X119027002Y-45723748D01*
X119027002Y-45565000D01*
X118909802Y-45565000D01*
X121189900Y-43284902D01*
X121245506Y-43330537D01*
X121355820Y-43389502D01*
X121475518Y-43425812D01*
X121600000Y-43438072D01*
X122600000Y-43438072D01*
X122724482Y-43425812D01*
X122844180Y-43389502D01*
X122954494Y-43330537D01*
X123051185Y-43251185D01*
X123130537Y-43154494D01*
X123189502Y-43044180D01*
X123225812Y-42924482D01*
X123238072Y-42800000D01*
X123238072Y-41300000D01*
X123225812Y-41175518D01*
X123189502Y-41055820D01*
X123130537Y-40945506D01*
X123051185Y-40848815D01*
X122954494Y-40769463D01*
X122844180Y-40710498D01*
X122724482Y-40674188D01*
X122600000Y-40661928D01*
X121600000Y-40661928D01*
X121475518Y-40674188D01*
X121355820Y-40710498D01*
X121245506Y-40769463D01*
X121148815Y-40848815D01*
X121069463Y-40945506D01*
X121010498Y-41055820D01*
X120974188Y-41175518D01*
X120961928Y-41300000D01*
X120961928Y-41395674D01*
X120925724Y-41415026D01*
X120809999Y-41509999D01*
X120786201Y-41538997D01*
X120038072Y-42287126D01*
X120038072Y-41300000D01*
X120025812Y-41175518D01*
X119989502Y-41055820D01*
X119930537Y-40945506D01*
X119851185Y-40848815D01*
X119754494Y-40769463D01*
X119644180Y-40710498D01*
X119524482Y-40674188D01*
X119400000Y-40661928D01*
X118400000Y-40661928D01*
X118275518Y-40674188D01*
X118155820Y-40710498D01*
X118045506Y-40769463D01*
X117948815Y-40848815D01*
X117869463Y-40945506D01*
X117810498Y-41055820D01*
X117774188Y-41175518D01*
X117761928Y-41300000D01*
X117761928Y-42800000D01*
X117774188Y-42924482D01*
X117810498Y-43044180D01*
X117869463Y-43154494D01*
X117948815Y-43251185D01*
X118045506Y-43330537D01*
X118155820Y-43389502D01*
X118275518Y-43425812D01*
X118400000Y-43438072D01*
X118887126Y-43438072D01*
X111713271Y-50611928D01*
X110250000Y-50611928D01*
X110125518Y-50624188D01*
X110005820Y-50660498D01*
X109895506Y-50719463D01*
X109798815Y-50798815D01*
X109719463Y-50895506D01*
X109660498Y-51005820D01*
X109624188Y-51125518D01*
X109611928Y-51250000D01*
X109611928Y-51393188D01*
X109607753Y-51394454D01*
X109475724Y-51465026D01*
X109359999Y-51559999D01*
X109336201Y-51588997D01*
X109127000Y-51798198D01*
X109127000Y-51000000D01*
X109124560Y-50975224D01*
X109117333Y-50951399D01*
X109105597Y-50929443D01*
X109089803Y-50910197D01*
X107089803Y-48910197D01*
X107070557Y-48894403D01*
X107048601Y-48882667D01*
X107024776Y-48875440D01*
X107000000Y-48873000D01*
X85000000Y-48873000D01*
X84975224Y-48875440D01*
X84951399Y-48882667D01*
X84929443Y-48894403D01*
X84910197Y-48910197D01*
X82910197Y-50910197D01*
X82894403Y-50929443D01*
X82882667Y-50951399D01*
X82875440Y-50975224D01*
X82873000Y-51000000D01*
X82873000Y-56000000D01*
X82875440Y-56024776D01*
X82882667Y-56048601D01*
X82894403Y-56070557D01*
X82910197Y-56089803D01*
X82929443Y-56105597D01*
X82951399Y-56117333D01*
X82975224Y-56124560D01*
X82985798Y-56125601D01*
X82969463Y-56145506D01*
X82910498Y-56255820D01*
X82874188Y-56375518D01*
X82861928Y-56500000D01*
X82861928Y-58500000D01*
X82874188Y-58624482D01*
X82910498Y-58744180D01*
X82969463Y-58854494D01*
X83048815Y-58951185D01*
X83145506Y-59030537D01*
X83233476Y-59077559D01*
X83101068Y-59238899D01*
X82967818Y-59488192D01*
X82885764Y-59758691D01*
X82858057Y-60040000D01*
X82660000Y-60040000D01*
X82660000Y-40660000D01*
X125340000Y-40660000D01*
X125340001Y-84340000D01*
%TA.AperFunction,Conductor*%
D18*
G36*
X125340001Y-84340000D02*
G01*
X82660000Y-84340000D01*
X82660000Y-60040000D01*
X82858057Y-60040000D01*
X82885764Y-60321309D01*
X82967818Y-60591808D01*
X83101068Y-60841101D01*
X83280392Y-61059608D01*
X83498899Y-61238932D01*
X83631858Y-61310000D01*
X83498899Y-61381068D01*
X83280392Y-61560392D01*
X83101068Y-61778899D01*
X82967818Y-62028192D01*
X82885764Y-62298691D01*
X82858057Y-62580000D01*
X82885764Y-62861309D01*
X82967818Y-63131808D01*
X83101068Y-63381101D01*
X83280392Y-63599608D01*
X83498899Y-63778932D01*
X83631858Y-63850000D01*
X83498899Y-63921068D01*
X83280392Y-64100392D01*
X83101068Y-64318899D01*
X82967818Y-64568192D01*
X82885764Y-64838691D01*
X82858057Y-65120000D01*
X82885764Y-65401309D01*
X82967818Y-65671808D01*
X83101068Y-65921101D01*
X83280392Y-66139608D01*
X83498899Y-66318932D01*
X83631858Y-66390000D01*
X83498899Y-66461068D01*
X83280392Y-66640392D01*
X83101068Y-66858899D01*
X82967818Y-67108192D01*
X82885764Y-67378691D01*
X82858057Y-67660000D01*
X82885764Y-67941309D01*
X82967818Y-68211808D01*
X83101068Y-68461101D01*
X83280392Y-68679608D01*
X83498899Y-68858932D01*
X83631858Y-68930000D01*
X83498899Y-69001068D01*
X83280392Y-69180392D01*
X83101068Y-69398899D01*
X82967818Y-69648192D01*
X82885764Y-69918691D01*
X82858057Y-70200000D01*
X82885764Y-70481309D01*
X82967818Y-70751808D01*
X83101068Y-71001101D01*
X83280392Y-71219608D01*
X83498899Y-71398932D01*
X83631858Y-71470000D01*
X83498899Y-71541068D01*
X83280392Y-71720392D01*
X83101068Y-71938899D01*
X82967818Y-72188192D01*
X82885764Y-72458691D01*
X82858057Y-72740000D01*
X82885764Y-73021309D01*
X82967818Y-73291808D01*
X83101068Y-73541101D01*
X83280392Y-73759608D01*
X83498899Y-73938932D01*
X83631858Y-74010000D01*
X83498899Y-74081068D01*
X83280392Y-74260392D01*
X83101068Y-74478899D01*
X82967818Y-74728192D01*
X82885764Y-74998691D01*
X82858057Y-75280000D01*
X82885764Y-75561309D01*
X82967818Y-75831808D01*
X83101068Y-76081101D01*
X83280392Y-76299608D01*
X83498899Y-76478932D01*
X83748192Y-76612182D01*
X84018691Y-76694236D01*
X84229508Y-76715000D01*
X84770492Y-76715000D01*
X84852156Y-76706957D01*
X90656201Y-82511003D01*
X90679999Y-82540001D01*
X90708997Y-82563799D01*
X90795723Y-82634974D01*
X90927753Y-82705546D01*
X91071014Y-82749003D01*
X91182667Y-82760000D01*
X91182676Y-82760000D01*
X91219999Y-82763676D01*
X91257322Y-82760000D01*
X120462678Y-82760000D01*
X120500000Y-82763676D01*
X120537322Y-82760000D01*
X120537333Y-82760000D01*
X120648986Y-82749003D01*
X120792247Y-82705546D01*
X120924276Y-82634974D01*
X121040001Y-82540001D01*
X121063804Y-82510997D01*
X123888393Y-79686409D01*
X123917390Y-79662612D01*
X124012363Y-79546887D01*
X124082935Y-79414858D01*
X124126392Y-79271597D01*
X124137389Y-79159944D01*
X124137389Y-79159943D01*
X124141066Y-79122611D01*
X124137389Y-79085278D01*
X124137389Y-74672743D01*
X124227389Y-74672743D01*
X124351871Y-74660483D01*
X124471569Y-74624173D01*
X124581883Y-74565208D01*
X124678574Y-74485856D01*
X124757926Y-74389165D01*
X124816891Y-74278851D01*
X124853201Y-74159153D01*
X124865461Y-74034671D01*
X124865461Y-72334671D01*
X124853201Y-72210189D01*
X124816891Y-72090491D01*
X124757926Y-71980177D01*
X124678574Y-71883486D01*
X124581883Y-71804134D01*
X124471569Y-71745169D01*
X124351871Y-71708859D01*
X124227389Y-71696599D01*
X122527389Y-71696599D01*
X122402907Y-71708859D01*
X122283209Y-71745169D01*
X122172895Y-71804134D01*
X122076204Y-71883486D01*
X121996852Y-71980177D01*
X121937887Y-72090491D01*
X121913423Y-72171137D01*
X121837658Y-72087083D01*
X121604309Y-71913030D01*
X121341488Y-71787846D01*
X121194279Y-71743195D01*
X120964389Y-71864516D01*
X120964389Y-73057671D01*
X120984389Y-73057671D01*
X120984389Y-73311671D01*
X120964389Y-73311671D01*
X120964389Y-74504826D01*
X121194279Y-74626147D01*
X121341488Y-74581496D01*
X121604309Y-74456312D01*
X121837658Y-74282259D01*
X121913423Y-74198205D01*
X121937887Y-74278851D01*
X121996852Y-74389165D01*
X122076204Y-74485856D01*
X122172895Y-74565208D01*
X122283209Y-74624173D01*
X122402907Y-74660483D01*
X122527389Y-74672743D01*
X122617390Y-74672743D01*
X122617389Y-78807809D01*
X120185199Y-81240000D01*
X91534802Y-81240000D01*
X86054159Y-75759358D01*
X86114236Y-75561309D01*
X86141943Y-75280000D01*
X86114236Y-74998691D01*
X86032182Y-74728192D01*
X85898932Y-74478899D01*
X85719608Y-74260392D01*
X85501101Y-74081068D01*
X85368142Y-74010000D01*
X85501101Y-73938932D01*
X85719608Y-73759608D01*
X85898932Y-73541101D01*
X86032182Y-73291808D01*
X86114236Y-73021309D01*
X86141943Y-72740000D01*
X86114236Y-72458691D01*
X86032182Y-72188192D01*
X85898932Y-71938899D01*
X85719608Y-71720392D01*
X85501101Y-71541068D01*
X85368142Y-71470000D01*
X85501101Y-71398932D01*
X85719608Y-71219608D01*
X85898932Y-71001101D01*
X86032182Y-70751808D01*
X86114236Y-70481309D01*
X86141943Y-70200000D01*
X86114236Y-69918691D01*
X86032182Y-69648192D01*
X85898932Y-69398899D01*
X85719608Y-69180392D01*
X85501101Y-69001068D01*
X85368142Y-68930000D01*
X85501101Y-68858932D01*
X85719608Y-68679608D01*
X85898932Y-68461101D01*
X86032182Y-68211808D01*
X86114236Y-67941309D01*
X86141943Y-67660000D01*
X86114236Y-67378691D01*
X86032182Y-67108192D01*
X85898932Y-66858899D01*
X85719608Y-66640392D01*
X85501101Y-66461068D01*
X85368142Y-66390000D01*
X85501101Y-66318932D01*
X85719608Y-66139608D01*
X85898932Y-65921101D01*
X86032182Y-65671808D01*
X86114236Y-65401309D01*
X86141943Y-65120000D01*
X86114236Y-64838691D01*
X86032182Y-64568192D01*
X85898932Y-64318899D01*
X85719608Y-64100392D01*
X85501101Y-63921068D01*
X85368142Y-63850000D01*
X85501101Y-63778932D01*
X85719608Y-63599608D01*
X85898932Y-63381101D01*
X86032182Y-63131808D01*
X86114236Y-62861309D01*
X86141943Y-62580000D01*
X86114236Y-62298691D01*
X86032182Y-62028192D01*
X85898932Y-61778899D01*
X85719608Y-61560392D01*
X85501101Y-61381068D01*
X85368142Y-61310000D01*
X85501101Y-61238932D01*
X85719608Y-61059608D01*
X85898932Y-60841101D01*
X86032182Y-60591808D01*
X86114236Y-60321309D01*
X86141943Y-60040000D01*
X86114236Y-59758691D01*
X86032182Y-59488192D01*
X85898932Y-59238899D01*
X85766524Y-59077559D01*
X85854494Y-59030537D01*
X85951185Y-58951185D01*
X86030537Y-58854494D01*
X86089502Y-58744180D01*
X86125812Y-58624482D01*
X86138072Y-58500000D01*
X86138072Y-56500000D01*
X86125812Y-56375518D01*
X86089502Y-56255820D01*
X86030537Y-56145506D01*
X86015350Y-56127000D01*
X104837618Y-56127000D01*
X104794455Y-56207753D01*
X104794454Y-56207754D01*
X104750997Y-56351015D01*
X104740000Y-56462668D01*
X104740000Y-56462678D01*
X104736324Y-56500000D01*
X104740000Y-56537322D01*
X104740001Y-73382667D01*
X104736324Y-73420000D01*
X104750998Y-73568985D01*
X104794454Y-73712246D01*
X104865026Y-73844276D01*
X104936201Y-73931002D01*
X104960000Y-73960001D01*
X104988998Y-73983799D01*
X105805841Y-74800642D01*
X105745764Y-74998691D01*
X105718057Y-75280000D01*
X105745764Y-75561309D01*
X105827818Y-75831808D01*
X105961068Y-76081101D01*
X106140392Y-76299608D01*
X106358899Y-76478932D01*
X106608192Y-76612182D01*
X106878691Y-76694236D01*
X107089508Y-76715000D01*
X107630492Y-76715000D01*
X107841309Y-76694236D01*
X108111808Y-76612182D01*
X108361101Y-76478932D01*
X108579608Y-76299608D01*
X108758932Y-76081101D01*
X108892182Y-75831808D01*
X108974236Y-75561309D01*
X109001943Y-75280000D01*
X108974236Y-74998691D01*
X108892182Y-74728192D01*
X108758932Y-74478899D01*
X108579608Y-74260392D01*
X108361101Y-74081068D01*
X108231655Y-74011878D01*
X108249227Y-74004430D01*
X108482662Y-73845673D01*
X108680639Y-73644425D01*
X108835551Y-73408421D01*
X108941444Y-73146730D01*
X108951904Y-73089039D01*
X108924089Y-73038411D01*
X109192389Y-73038411D01*
X109192389Y-73330931D01*
X109249457Y-73617829D01*
X109361399Y-73888082D01*
X109523914Y-74131303D01*
X109730757Y-74338146D01*
X109973978Y-74500661D01*
X110244231Y-74612603D01*
X110531129Y-74669671D01*
X110823649Y-74669671D01*
X111110547Y-74612603D01*
X111380800Y-74500661D01*
X111624021Y-74338146D01*
X111830864Y-74131303D01*
X111947389Y-73956911D01*
X112063914Y-74131303D01*
X112270757Y-74338146D01*
X112513978Y-74500661D01*
X112784231Y-74612603D01*
X113071129Y-74669671D01*
X113363649Y-74669671D01*
X113650547Y-74612603D01*
X113920800Y-74500661D01*
X114164021Y-74338146D01*
X114370864Y-74131303D01*
X114487389Y-73956911D01*
X114603914Y-74131303D01*
X114810757Y-74338146D01*
X115053978Y-74500661D01*
X115324231Y-74612603D01*
X115611129Y-74669671D01*
X115903649Y-74669671D01*
X116190547Y-74612603D01*
X116460800Y-74500661D01*
X116704021Y-74338146D01*
X116910864Y-74131303D01*
X117027389Y-73956911D01*
X117143914Y-74131303D01*
X117350757Y-74338146D01*
X117593978Y-74500661D01*
X117864231Y-74612603D01*
X118151129Y-74669671D01*
X118443649Y-74669671D01*
X118730547Y-74612603D01*
X119000800Y-74500661D01*
X119244021Y-74338146D01*
X119450864Y-74131303D01*
X119572584Y-73949137D01*
X119642211Y-74066026D01*
X119837120Y-74282259D01*
X120070469Y-74456312D01*
X120333290Y-74581496D01*
X120480499Y-74626147D01*
X120710389Y-74504826D01*
X120710389Y-73311671D01*
X120690389Y-73311671D01*
X120690389Y-73057671D01*
X120710389Y-73057671D01*
X120710389Y-71864516D01*
X120480499Y-71743195D01*
X120333290Y-71787846D01*
X120070469Y-71913030D01*
X119837120Y-72087083D01*
X119642211Y-72303316D01*
X119572584Y-72420205D01*
X119450864Y-72238039D01*
X119244021Y-72031196D01*
X119000800Y-71868681D01*
X118730547Y-71756739D01*
X118443649Y-71699671D01*
X118151129Y-71699671D01*
X117864231Y-71756739D01*
X117593978Y-71868681D01*
X117350757Y-72031196D01*
X117143914Y-72238039D01*
X117027389Y-72412431D01*
X116910864Y-72238039D01*
X116704021Y-72031196D01*
X116460800Y-71868681D01*
X116190547Y-71756739D01*
X115903649Y-71699671D01*
X115611129Y-71699671D01*
X115324231Y-71756739D01*
X115053978Y-71868681D01*
X114810757Y-72031196D01*
X114603914Y-72238039D01*
X114487389Y-72412431D01*
X114370864Y-72238039D01*
X114164021Y-72031196D01*
X113920800Y-71868681D01*
X113650547Y-71756739D01*
X113363649Y-71699671D01*
X113071129Y-71699671D01*
X112784231Y-71756739D01*
X112513978Y-71868681D01*
X112270757Y-72031196D01*
X112063914Y-72238039D01*
X111947389Y-72412431D01*
X111830864Y-72238039D01*
X111624021Y-72031196D01*
X111380800Y-71868681D01*
X111110547Y-71756739D01*
X110823649Y-71699671D01*
X110531129Y-71699671D01*
X110244231Y-71756739D01*
X109973978Y-71868681D01*
X109730757Y-72031196D01*
X109523914Y-72238039D01*
X109361399Y-72481260D01*
X109249457Y-72751513D01*
X109192389Y-73038411D01*
X108924089Y-73038411D01*
X108829915Y-72867000D01*
X107487000Y-72867000D01*
X107487000Y-72887000D01*
X107233000Y-72887000D01*
X107233000Y-72867000D01*
X107213000Y-72867000D01*
X107213000Y-72613000D01*
X107233000Y-72613000D01*
X107233000Y-72593000D01*
X107487000Y-72593000D01*
X107487000Y-72613000D01*
X108829915Y-72613000D01*
X108951904Y-72390961D01*
X108941444Y-72333270D01*
X108835551Y-72071579D01*
X108680639Y-71835575D01*
X108482662Y-71634327D01*
X108249227Y-71475570D01*
X108231655Y-71468122D01*
X108361101Y-71398932D01*
X108579608Y-71219608D01*
X108758932Y-71001101D01*
X108892182Y-70751808D01*
X108974236Y-70481309D01*
X109001943Y-70200000D01*
X108974236Y-69918691D01*
X108914159Y-69720642D01*
X109169803Y-69464999D01*
X109668456Y-69464999D01*
X109615000Y-69733740D01*
X109615000Y-70026260D01*
X109672068Y-70313158D01*
X109784010Y-70583411D01*
X109946525Y-70826632D01*
X110153368Y-71033475D01*
X110396589Y-71195990D01*
X110666842Y-71307932D01*
X110953740Y-71365000D01*
X111246260Y-71365000D01*
X111533158Y-71307932D01*
X111803411Y-71195990D01*
X112046632Y-71033475D01*
X112253475Y-70826632D01*
X112415990Y-70583411D01*
X112527932Y-70313158D01*
X112585000Y-70026260D01*
X112585000Y-69733740D01*
X112527932Y-69446842D01*
X112415990Y-69176589D01*
X112280295Y-68973508D01*
X122611004Y-58642800D01*
X122640001Y-58619003D01*
X122683069Y-58566525D01*
X122734974Y-58503279D01*
X122805546Y-58371249D01*
X122817004Y-58333475D01*
X122849003Y-58227988D01*
X122860000Y-58116335D01*
X122860000Y-58116326D01*
X122863676Y-58079003D01*
X122860000Y-58041680D01*
X122860000Y-48281046D01*
X122954494Y-48230537D01*
X123051185Y-48151185D01*
X123130537Y-48054494D01*
X123189502Y-47944180D01*
X123225812Y-47824482D01*
X123238072Y-47700000D01*
X123238072Y-46200000D01*
X123225812Y-46075518D01*
X123189502Y-45955820D01*
X123130537Y-45845506D01*
X123051185Y-45748815D01*
X122954494Y-45669463D01*
X122844180Y-45610498D01*
X122724482Y-45574188D01*
X122600000Y-45561928D01*
X121600000Y-45561928D01*
X121475518Y-45574188D01*
X121355820Y-45610498D01*
X121245506Y-45669463D01*
X121148815Y-45748815D01*
X121069463Y-45845506D01*
X121010498Y-45955820D01*
X120974188Y-46075518D01*
X120961928Y-46200000D01*
X120961928Y-47700000D01*
X120974188Y-47824482D01*
X121010498Y-47944180D01*
X121069463Y-48054494D01*
X121148815Y-48151185D01*
X121245506Y-48230537D01*
X121340001Y-48281046D01*
X121340000Y-57764200D01*
X112431110Y-66673091D01*
X112415990Y-66636589D01*
X112253475Y-66393368D01*
X112046632Y-66186525D01*
X111872240Y-66070000D01*
X112046632Y-65953475D01*
X112253475Y-65746632D01*
X112415990Y-65503411D01*
X112527932Y-65233158D01*
X112585000Y-64946260D01*
X112585000Y-64653740D01*
X112527932Y-64366842D01*
X112415990Y-64096589D01*
X112253475Y-63853368D01*
X112046632Y-63646525D01*
X111864466Y-63524805D01*
X111981355Y-63455178D01*
X112197588Y-63260269D01*
X112371641Y-63026920D01*
X112496825Y-62764099D01*
X112541476Y-62616890D01*
X112420155Y-62387000D01*
X111227000Y-62387000D01*
X111227000Y-62407000D01*
X110973000Y-62407000D01*
X110973000Y-62387000D01*
X109779845Y-62387000D01*
X109658524Y-62616890D01*
X109703175Y-62764099D01*
X109828359Y-63026920D01*
X110002412Y-63260269D01*
X110218645Y-63455178D01*
X110335534Y-63524805D01*
X110153368Y-63646525D01*
X109946525Y-63853368D01*
X109784010Y-64096589D01*
X109672068Y-64366842D01*
X109615000Y-64653740D01*
X109615000Y-64946260D01*
X109672068Y-65233158D01*
X109784010Y-65503411D01*
X109946525Y-65746632D01*
X110153368Y-65953475D01*
X110327760Y-66070000D01*
X110153368Y-66186525D01*
X109946525Y-66393368D01*
X109784010Y-66636589D01*
X109672068Y-66906842D01*
X109615000Y-67193740D01*
X109615000Y-67486260D01*
X109672068Y-67773158D01*
X109743247Y-67944999D01*
X108973117Y-67944999D01*
X108974236Y-67941309D01*
X109001943Y-67660000D01*
X108974236Y-67378691D01*
X108892182Y-67108192D01*
X108758932Y-66858899D01*
X108579608Y-66640392D01*
X108361101Y-66461068D01*
X108228142Y-66390000D01*
X108361101Y-66318932D01*
X108579608Y-66139608D01*
X108758932Y-65921101D01*
X108892182Y-65671808D01*
X108974236Y-65401309D01*
X109001943Y-65120000D01*
X108974236Y-64838691D01*
X108892182Y-64568192D01*
X108758932Y-64318899D01*
X108579608Y-64100392D01*
X108361101Y-63921068D01*
X108228142Y-63850000D01*
X108361101Y-63778932D01*
X108579608Y-63599608D01*
X108758932Y-63381101D01*
X108892182Y-63131808D01*
X108974236Y-62861309D01*
X109001943Y-62580000D01*
X108974236Y-62298691D01*
X108892182Y-62028192D01*
X108758932Y-61778899D01*
X108579608Y-61560392D01*
X108361101Y-61381068D01*
X108228142Y-61310000D01*
X108361101Y-61238932D01*
X108579608Y-61059608D01*
X108758932Y-60841101D01*
X108892182Y-60591808D01*
X108974236Y-60321309D01*
X109001943Y-60040000D01*
X108974236Y-59758691D01*
X108892182Y-59488192D01*
X108758932Y-59238899D01*
X108579608Y-59020392D01*
X108361101Y-58841068D01*
X108228142Y-58770000D01*
X108361101Y-58698932D01*
X108579608Y-58519608D01*
X108758932Y-58301101D01*
X108892182Y-58051808D01*
X108974236Y-57781309D01*
X109001943Y-57500000D01*
X108974236Y-57218691D01*
X108918133Y-57033740D01*
X109615000Y-57033740D01*
X109615000Y-57326260D01*
X109672068Y-57613158D01*
X109784010Y-57883411D01*
X109946525Y-58126632D01*
X110153368Y-58333475D01*
X110327760Y-58450000D01*
X110153368Y-58566525D01*
X109946525Y-58773368D01*
X109784010Y-59016589D01*
X109672068Y-59286842D01*
X109615000Y-59573740D01*
X109615000Y-59866260D01*
X109672068Y-60153158D01*
X109784010Y-60423411D01*
X109946525Y-60666632D01*
X110153368Y-60873475D01*
X110335534Y-60995195D01*
X110218645Y-61064822D01*
X110002412Y-61259731D01*
X109828359Y-61493080D01*
X109703175Y-61755901D01*
X109658524Y-61903110D01*
X109779845Y-62133000D01*
X110973000Y-62133000D01*
X110973000Y-62113000D01*
X111227000Y-62113000D01*
X111227000Y-62133000D01*
X112420155Y-62133000D01*
X112541476Y-61903110D01*
X112496825Y-61755901D01*
X112371641Y-61493080D01*
X112197588Y-61259731D01*
X111981355Y-61064822D01*
X111864466Y-60995195D01*
X112046632Y-60873475D01*
X112253475Y-60666632D01*
X112415990Y-60423411D01*
X112527932Y-60153158D01*
X112585000Y-59866260D01*
X112585000Y-59573740D01*
X112527932Y-59286842D01*
X112415990Y-59016589D01*
X112253475Y-58773368D01*
X112046632Y-58566525D01*
X111872240Y-58450000D01*
X112046632Y-58333475D01*
X112253475Y-58126632D01*
X112415990Y-57883411D01*
X112527932Y-57613158D01*
X112585000Y-57326260D01*
X112585000Y-57033740D01*
X112527932Y-56746842D01*
X112415990Y-56476589D01*
X112253475Y-56233368D01*
X112046632Y-56026525D01*
X111864466Y-55904805D01*
X111981355Y-55835178D01*
X112197588Y-55640269D01*
X112371641Y-55406920D01*
X112496825Y-55144099D01*
X112541476Y-54996890D01*
X112420155Y-54767000D01*
X111227000Y-54767000D01*
X111227000Y-54787000D01*
X110973000Y-54787000D01*
X110973000Y-54767000D01*
X109779845Y-54767000D01*
X109658524Y-54996890D01*
X109703175Y-55144099D01*
X109828359Y-55406920D01*
X110002412Y-55640269D01*
X110218645Y-55835178D01*
X110335534Y-55904805D01*
X110153368Y-56026525D01*
X109946525Y-56233368D01*
X109784010Y-56476589D01*
X109672068Y-56746842D01*
X109615000Y-57033740D01*
X108918133Y-57033740D01*
X108892182Y-56948192D01*
X108758932Y-56698899D01*
X108579608Y-56480392D01*
X108361101Y-56301068D01*
X108111808Y-56167818D01*
X107977247Y-56127000D01*
X109000000Y-56127000D01*
X109024776Y-56124560D01*
X109048601Y-56117333D01*
X109070557Y-56105597D01*
X109089803Y-56089803D01*
X109105597Y-56070557D01*
X109117333Y-56048601D01*
X109124560Y-56024776D01*
X109127000Y-56000000D01*
X109127000Y-53947802D01*
X109742381Y-53332420D01*
X109798815Y-53401185D01*
X109895506Y-53480537D01*
X110005820Y-53539502D01*
X110086466Y-53563966D01*
X110002412Y-53639731D01*
X109828359Y-53873080D01*
X109703175Y-54135901D01*
X109658524Y-54283110D01*
X109779845Y-54513000D01*
X110973000Y-54513000D01*
X110973000Y-54493000D01*
X111227000Y-54493000D01*
X111227000Y-54513000D01*
X112420155Y-54513000D01*
X112541476Y-54283110D01*
X112496825Y-54135901D01*
X112371641Y-53873080D01*
X112197588Y-53639731D01*
X112113534Y-53563966D01*
X112194180Y-53539502D01*
X112304494Y-53480537D01*
X112401185Y-53401185D01*
X112480537Y-53304494D01*
X112539502Y-53194180D01*
X112575812Y-53074482D01*
X112588072Y-52950000D01*
X112588072Y-51886729D01*
X116774801Y-47700000D01*
X117761928Y-47700000D01*
X117774188Y-47824482D01*
X117810498Y-47944180D01*
X117869463Y-48054494D01*
X117948815Y-48151185D01*
X118045506Y-48230537D01*
X118155820Y-48289502D01*
X118275518Y-48325812D01*
X118400000Y-48338072D01*
X118614250Y-48335000D01*
X118773000Y-48176250D01*
X118773000Y-47077000D01*
X119027000Y-47077000D01*
X119027000Y-48176250D01*
X119185750Y-48335000D01*
X119400000Y-48338072D01*
X119524482Y-48325812D01*
X119644180Y-48289502D01*
X119754494Y-48230537D01*
X119851185Y-48151185D01*
X119930537Y-48054494D01*
X119989502Y-47944180D01*
X120025812Y-47824482D01*
X120038072Y-47700000D01*
X120035000Y-47235750D01*
X119876250Y-47077000D01*
X119027000Y-47077000D01*
X118773000Y-47077000D01*
X117923750Y-47077000D01*
X117765000Y-47235750D01*
X117761928Y-47700000D01*
X116774801Y-47700000D01*
X117787776Y-46687026D01*
X117923750Y-46823000D01*
X118773000Y-46823000D01*
X118773000Y-46803000D01*
X119027000Y-46803000D01*
X119027000Y-46823000D01*
X119876250Y-46823000D01*
X120035000Y-46664250D01*
X120038072Y-46200000D01*
X120025812Y-46075518D01*
X119989502Y-45955820D01*
X119930537Y-45845506D01*
X119851185Y-45748815D01*
X119754494Y-45669463D01*
X119644180Y-45610498D01*
X119524482Y-45574188D01*
X119400000Y-45561928D01*
X119185750Y-45565000D01*
X119027002Y-45723748D01*
X119027002Y-45565000D01*
X118909802Y-45565000D01*
X121189900Y-43284902D01*
X121245506Y-43330537D01*
X121355820Y-43389502D01*
X121475518Y-43425812D01*
X121600000Y-43438072D01*
X122600000Y-43438072D01*
X122724482Y-43425812D01*
X122844180Y-43389502D01*
X122954494Y-43330537D01*
X123051185Y-43251185D01*
X123130537Y-43154494D01*
X123189502Y-43044180D01*
X123225812Y-42924482D01*
X123238072Y-42800000D01*
X123238072Y-41300000D01*
X123225812Y-41175518D01*
X123189502Y-41055820D01*
X123130537Y-40945506D01*
X123051185Y-40848815D01*
X122954494Y-40769463D01*
X122844180Y-40710498D01*
X122724482Y-40674188D01*
X122600000Y-40661928D01*
X121600000Y-40661928D01*
X121475518Y-40674188D01*
X121355820Y-40710498D01*
X121245506Y-40769463D01*
X121148815Y-40848815D01*
X121069463Y-40945506D01*
X121010498Y-41055820D01*
X120974188Y-41175518D01*
X120961928Y-41300000D01*
X120961928Y-41395674D01*
X120925724Y-41415026D01*
X120809999Y-41509999D01*
X120786201Y-41538997D01*
X120038072Y-42287126D01*
X120038072Y-41300000D01*
X120025812Y-41175518D01*
X119989502Y-41055820D01*
X119930537Y-40945506D01*
X119851185Y-40848815D01*
X119754494Y-40769463D01*
X119644180Y-40710498D01*
X119524482Y-40674188D01*
X119400000Y-40661928D01*
X118400000Y-40661928D01*
X118275518Y-40674188D01*
X118155820Y-40710498D01*
X118045506Y-40769463D01*
X117948815Y-40848815D01*
X117869463Y-40945506D01*
X117810498Y-41055820D01*
X117774188Y-41175518D01*
X117761928Y-41300000D01*
X117761928Y-42800000D01*
X117774188Y-42924482D01*
X117810498Y-43044180D01*
X117869463Y-43154494D01*
X117948815Y-43251185D01*
X118045506Y-43330537D01*
X118155820Y-43389502D01*
X118275518Y-43425812D01*
X118400000Y-43438072D01*
X118887126Y-43438072D01*
X111713271Y-50611928D01*
X110250000Y-50611928D01*
X110125518Y-50624188D01*
X110005820Y-50660498D01*
X109895506Y-50719463D01*
X109798815Y-50798815D01*
X109719463Y-50895506D01*
X109660498Y-51005820D01*
X109624188Y-51125518D01*
X109611928Y-51250000D01*
X109611928Y-51393188D01*
X109607753Y-51394454D01*
X109475724Y-51465026D01*
X109359999Y-51559999D01*
X109336201Y-51588997D01*
X109127000Y-51798198D01*
X109127000Y-51000000D01*
X109124560Y-50975224D01*
X109117333Y-50951399D01*
X109105597Y-50929443D01*
X109089803Y-50910197D01*
X107089803Y-48910197D01*
X107070557Y-48894403D01*
X107048601Y-48882667D01*
X107024776Y-48875440D01*
X107000000Y-48873000D01*
X85000000Y-48873000D01*
X84975224Y-48875440D01*
X84951399Y-48882667D01*
X84929443Y-48894403D01*
X84910197Y-48910197D01*
X82910197Y-50910197D01*
X82894403Y-50929443D01*
X82882667Y-50951399D01*
X82875440Y-50975224D01*
X82873000Y-51000000D01*
X82873000Y-56000000D01*
X82875440Y-56024776D01*
X82882667Y-56048601D01*
X82894403Y-56070557D01*
X82910197Y-56089803D01*
X82929443Y-56105597D01*
X82951399Y-56117333D01*
X82975224Y-56124560D01*
X82985798Y-56125601D01*
X82969463Y-56145506D01*
X82910498Y-56255820D01*
X82874188Y-56375518D01*
X82861928Y-56500000D01*
X82861928Y-58500000D01*
X82874188Y-58624482D01*
X82910498Y-58744180D01*
X82969463Y-58854494D01*
X83048815Y-58951185D01*
X83145506Y-59030537D01*
X83233476Y-59077559D01*
X83101068Y-59238899D01*
X82967818Y-59488192D01*
X82885764Y-59758691D01*
X82858057Y-60040000D01*
X82660000Y-60040000D01*
X82660000Y-40660000D01*
X125340000Y-40660000D01*
X125340001Y-84340000D01*
G37*
%TD.AperFunction*%
%TD*%
M02*
