%TF.GenerationSoftware,KiCad,Pcbnew,(5.1.10)-1*%
%TF.CreationDate,2021-06-04T21:06:00+02:00*%
%TF.ProjectId,Monitor,4d6f6e69-746f-4722-9e6b-696361645f70,rev?*%
%TF.SameCoordinates,Original*%
%TF.FileFunction,Copper,L2,Bot*%
%TF.FilePolarity,Positive*%
%FSLAX46Y46*%
G04 Gerber Fmt 4.6, Leading zero omitted, Abs format (unit mm)*
G04 Created by KiCad (PCBNEW (5.1.10)-1) date 2021-06-04 21:06:00*
%MOMM*%
%LPD*%
G01*
G04 APERTURE LIST*
%TA.AperFunction,Profile*%
%ADD10C,0.050000*%
%TD*%
%TA.AperFunction,ComponentPad*%
%ADD11O,1.700000X1.700000*%
%TD*%
%TA.AperFunction,ComponentPad*%
%ADD12R,1.700000X1.700000*%
%TD*%
%TA.AperFunction,ComponentPad*%
%ADD13O,2.000000X1.600000*%
%TD*%
%TA.AperFunction,ComponentPad*%
%ADD14R,2.000000X2.000000*%
%TD*%
%TA.AperFunction,Conductor*%
%ADD15C,0.250000*%
%TD*%
%TA.AperFunction,Conductor*%
%ADD16C,0.254000*%
%TD*%
%TA.AperFunction,Conductor*%
%ADD17C,0.100000*%
%TD*%
G04 APERTURE END LIST*
D10*
X82000000Y-85000000D02*
X82000000Y-40000000D01*
X126000000Y-85000000D02*
X82000000Y-85000000D01*
X126000000Y-40000000D02*
X126000000Y-85000000D01*
X82000000Y-40000000D02*
X126000000Y-40000000D01*
D11*
%TO.P,J2,4*%
%TO.N,sda*%
X111100000Y-59720000D03*
%TO.P,J2,7*%
%TO.N,Net-(J2-Pad7)*%
X111100000Y-67340000D03*
%TO.P,J2,5*%
%TO.N,GND*%
X111100000Y-62260000D03*
%TO.P,J2,2*%
X111100000Y-54640000D03*
%TO.P,J2,3*%
%TO.N,scl*%
X111100000Y-57180000D03*
%TO.P,J2,6*%
%TO.N,Net-(J2-Pad6)*%
X111100000Y-64800000D03*
%TO.P,J2,8*%
%TO.N,Net-(J2-Pad8)*%
X111100000Y-69880000D03*
D12*
%TO.P,J2,1*%
%TO.N,+5V*%
X111100000Y-52100000D03*
%TD*%
D11*
%TO.P,J1,3*%
%TO.N,scl*%
X118297389Y-73184671D03*
%TO.P,J1,6*%
%TO.N,Net-(J1-Pad6)*%
X110677389Y-73184671D03*
%TO.P,J1,2*%
%TO.N,GND*%
X120837389Y-73184671D03*
%TO.P,J1,4*%
%TO.N,sda*%
X115757389Y-73184671D03*
%TO.P,J1,5*%
%TO.N,Net-(J1-Pad5)*%
X113217389Y-73184671D03*
D12*
%TO.P,J1,1*%
%TO.N,+3V3*%
X123377389Y-73184671D03*
%TD*%
D13*
%TO.P,U1,16*%
%TO.N,Net-(U1-Pad16)*%
X107360000Y-57500000D03*
%TO.P,U1,15*%
%TO.N,Net-(U1-Pad15)*%
X107360000Y-60040000D03*
%TO.P,U1,14*%
%TO.N,scl*%
X107360000Y-62580000D03*
%TO.P,U1,13*%
%TO.N,sda*%
X107360000Y-65120000D03*
%TO.P,U1,12*%
%TO.N,Net-(U1-Pad12)*%
X107360000Y-67660000D03*
%TO.P,U1,11*%
%TO.N,din*%
X107360000Y-70200000D03*
%TO.P,U1,10*%
%TO.N,GND*%
X107360000Y-72740000D03*
%TO.P,U1,9*%
%TO.N,+5V*%
X107360000Y-75280000D03*
%TO.P,U1,8*%
%TO.N,+3V3*%
X84500000Y-75280000D03*
%TO.P,U1,7*%
%TO.N,Net-(U1-Pad7)*%
X84500000Y-72740000D03*
%TO.P,U1,6*%
%TO.N,Net-(U1-Pad6)*%
X84500000Y-70200000D03*
%TO.P,U1,5*%
%TO.N,Net-(U1-Pad5)*%
X84500000Y-67660000D03*
%TO.P,U1,4*%
%TO.N,Net-(U1-Pad4)*%
X84500000Y-65120000D03*
%TO.P,U1,3*%
%TO.N,Net-(U1-Pad3)*%
X84500000Y-62580000D03*
D14*
%TO.P,U1,1*%
%TO.N,Net-(U1-Pad1)*%
X84500000Y-57500000D03*
D13*
%TO.P,U1,2*%
%TO.N,Net-(U1-Pad2)*%
X84500000Y-60040000D03*
%TD*%
D15*
%TO.N,sda*%
X105000000Y-76000000D02*
X105000000Y-67480000D01*
X106000000Y-77000000D02*
X105000000Y-76000000D01*
X111942060Y-77000000D02*
X106000000Y-77000000D01*
X105000000Y-67480000D02*
X107360000Y-65120000D01*
X115757389Y-73184671D02*
X111942060Y-77000000D01*
X115757389Y-64377389D02*
X115757389Y-73184671D01*
X111100000Y-59720000D02*
X115757389Y-64377389D01*
%TO.N,scl*%
X118297389Y-64377389D02*
X118297389Y-73184671D01*
X111100000Y-57180000D02*
X118297389Y-64377389D01*
X107360000Y-62580000D02*
X103000000Y-66940000D01*
X103000000Y-66940000D02*
X103000000Y-77000000D01*
X103000000Y-77000000D02*
X105000000Y-79000000D01*
X112482060Y-79000000D02*
X118297389Y-73184671D01*
X105000000Y-79000000D02*
X112482060Y-79000000D01*
%TO.N,+3V3*%
X84500000Y-75280000D02*
X83780000Y-75280000D01*
%TD*%
D16*
%TO.N,GND*%
X125340001Y-84340000D02*
X82660000Y-84340000D01*
X82660000Y-60040000D01*
X82858057Y-60040000D01*
X82885764Y-60321309D01*
X82967818Y-60591808D01*
X83101068Y-60841101D01*
X83280392Y-61059608D01*
X83498899Y-61238932D01*
X83631858Y-61310000D01*
X83498899Y-61381068D01*
X83280392Y-61560392D01*
X83101068Y-61778899D01*
X82967818Y-62028192D01*
X82885764Y-62298691D01*
X82858057Y-62580000D01*
X82885764Y-62861309D01*
X82967818Y-63131808D01*
X83101068Y-63381101D01*
X83280392Y-63599608D01*
X83498899Y-63778932D01*
X83631858Y-63850000D01*
X83498899Y-63921068D01*
X83280392Y-64100392D01*
X83101068Y-64318899D01*
X82967818Y-64568192D01*
X82885764Y-64838691D01*
X82858057Y-65120000D01*
X82885764Y-65401309D01*
X82967818Y-65671808D01*
X83101068Y-65921101D01*
X83280392Y-66139608D01*
X83498899Y-66318932D01*
X83631858Y-66390000D01*
X83498899Y-66461068D01*
X83280392Y-66640392D01*
X83101068Y-66858899D01*
X82967818Y-67108192D01*
X82885764Y-67378691D01*
X82858057Y-67660000D01*
X82885764Y-67941309D01*
X82967818Y-68211808D01*
X83101068Y-68461101D01*
X83280392Y-68679608D01*
X83498899Y-68858932D01*
X83631858Y-68930000D01*
X83498899Y-69001068D01*
X83280392Y-69180392D01*
X83101068Y-69398899D01*
X82967818Y-69648192D01*
X82885764Y-69918691D01*
X82858057Y-70200000D01*
X82885764Y-70481309D01*
X82967818Y-70751808D01*
X83101068Y-71001101D01*
X83280392Y-71219608D01*
X83498899Y-71398932D01*
X83631858Y-71470000D01*
X83498899Y-71541068D01*
X83280392Y-71720392D01*
X83101068Y-71938899D01*
X82967818Y-72188192D01*
X82885764Y-72458691D01*
X82858057Y-72740000D01*
X82885764Y-73021309D01*
X82967818Y-73291808D01*
X83101068Y-73541101D01*
X83280392Y-73759608D01*
X83498899Y-73938932D01*
X83631858Y-74010000D01*
X83498899Y-74081068D01*
X83280392Y-74260392D01*
X83101068Y-74478899D01*
X82967818Y-74728192D01*
X82885764Y-74998691D01*
X82858057Y-75280000D01*
X82885764Y-75561309D01*
X82967818Y-75831808D01*
X83101068Y-76081101D01*
X83280392Y-76299608D01*
X83498899Y-76478932D01*
X83748192Y-76612182D01*
X84018691Y-76694236D01*
X84229508Y-76715000D01*
X84770492Y-76715000D01*
X84981309Y-76694236D01*
X85251808Y-76612182D01*
X85501101Y-76478932D01*
X85719608Y-76299608D01*
X85898932Y-76081101D01*
X86032182Y-75831808D01*
X86114236Y-75561309D01*
X86141943Y-75280000D01*
X86114236Y-74998691D01*
X86032182Y-74728192D01*
X85898932Y-74478899D01*
X85719608Y-74260392D01*
X85501101Y-74081068D01*
X85368142Y-74010000D01*
X85501101Y-73938932D01*
X85719608Y-73759608D01*
X85898932Y-73541101D01*
X86032182Y-73291808D01*
X86114236Y-73021309D01*
X86141943Y-72740000D01*
X86114236Y-72458691D01*
X86032182Y-72188192D01*
X85898932Y-71938899D01*
X85719608Y-71720392D01*
X85501101Y-71541068D01*
X85368142Y-71470000D01*
X85501101Y-71398932D01*
X85719608Y-71219608D01*
X85898932Y-71001101D01*
X86032182Y-70751808D01*
X86114236Y-70481309D01*
X86141943Y-70200000D01*
X86114236Y-69918691D01*
X86032182Y-69648192D01*
X85898932Y-69398899D01*
X85719608Y-69180392D01*
X85501101Y-69001068D01*
X85368142Y-68930000D01*
X85501101Y-68858932D01*
X85719608Y-68679608D01*
X85898932Y-68461101D01*
X86032182Y-68211808D01*
X86114236Y-67941309D01*
X86141943Y-67660000D01*
X86114236Y-67378691D01*
X86032182Y-67108192D01*
X85942282Y-66940000D01*
X102236324Y-66940000D01*
X102240000Y-66977322D01*
X102240001Y-76962668D01*
X102236324Y-77000000D01*
X102250998Y-77148985D01*
X102294454Y-77292246D01*
X102365026Y-77424276D01*
X102436201Y-77511002D01*
X102460000Y-77540001D01*
X102488998Y-77563799D01*
X104436201Y-79511003D01*
X104459999Y-79540001D01*
X104488997Y-79563799D01*
X104575723Y-79634974D01*
X104707753Y-79705546D01*
X104851014Y-79749003D01*
X104962667Y-79760000D01*
X104962676Y-79760000D01*
X104999999Y-79763676D01*
X105037322Y-79760000D01*
X112444738Y-79760000D01*
X112482060Y-79763676D01*
X112519382Y-79760000D01*
X112519393Y-79760000D01*
X112631046Y-79749003D01*
X112774307Y-79705546D01*
X112906336Y-79634974D01*
X113022061Y-79540001D01*
X113045864Y-79510997D01*
X117930981Y-74625881D01*
X118151129Y-74669671D01*
X118443649Y-74669671D01*
X118730547Y-74612603D01*
X119000800Y-74500661D01*
X119244021Y-74338146D01*
X119450864Y-74131303D01*
X119572584Y-73949137D01*
X119642211Y-74066026D01*
X119837120Y-74282259D01*
X120070469Y-74456312D01*
X120333290Y-74581496D01*
X120480499Y-74626147D01*
X120710389Y-74504826D01*
X120710389Y-73311671D01*
X120690389Y-73311671D01*
X120690389Y-73057671D01*
X120710389Y-73057671D01*
X120710389Y-71864516D01*
X120964389Y-71864516D01*
X120964389Y-73057671D01*
X120984389Y-73057671D01*
X120984389Y-73311671D01*
X120964389Y-73311671D01*
X120964389Y-74504826D01*
X121194279Y-74626147D01*
X121341488Y-74581496D01*
X121604309Y-74456312D01*
X121837658Y-74282259D01*
X121913423Y-74198205D01*
X121937887Y-74278851D01*
X121996852Y-74389165D01*
X122076204Y-74485856D01*
X122172895Y-74565208D01*
X122283209Y-74624173D01*
X122402907Y-74660483D01*
X122527389Y-74672743D01*
X124227389Y-74672743D01*
X124351871Y-74660483D01*
X124471569Y-74624173D01*
X124581883Y-74565208D01*
X124678574Y-74485856D01*
X124757926Y-74389165D01*
X124816891Y-74278851D01*
X124853201Y-74159153D01*
X124865461Y-74034671D01*
X124865461Y-72334671D01*
X124853201Y-72210189D01*
X124816891Y-72090491D01*
X124757926Y-71980177D01*
X124678574Y-71883486D01*
X124581883Y-71804134D01*
X124471569Y-71745169D01*
X124351871Y-71708859D01*
X124227389Y-71696599D01*
X122527389Y-71696599D01*
X122402907Y-71708859D01*
X122283209Y-71745169D01*
X122172895Y-71804134D01*
X122076204Y-71883486D01*
X121996852Y-71980177D01*
X121937887Y-72090491D01*
X121913423Y-72171137D01*
X121837658Y-72087083D01*
X121604309Y-71913030D01*
X121341488Y-71787846D01*
X121194279Y-71743195D01*
X120964389Y-71864516D01*
X120710389Y-71864516D01*
X120480499Y-71743195D01*
X120333290Y-71787846D01*
X120070469Y-71913030D01*
X119837120Y-72087083D01*
X119642211Y-72303316D01*
X119572584Y-72420205D01*
X119450864Y-72238039D01*
X119244021Y-72031196D01*
X119057389Y-71906493D01*
X119057389Y-64414711D01*
X119061065Y-64377388D01*
X119057389Y-64340065D01*
X119057389Y-64340056D01*
X119046392Y-64228403D01*
X119002935Y-64085142D01*
X118932364Y-63953114D01*
X118932363Y-63953112D01*
X118861188Y-63866386D01*
X118837390Y-63837388D01*
X118808393Y-63813591D01*
X112541209Y-57546408D01*
X112585000Y-57326260D01*
X112585000Y-57033740D01*
X112527932Y-56746842D01*
X112415990Y-56476589D01*
X112253475Y-56233368D01*
X112046632Y-56026525D01*
X111864466Y-55904805D01*
X111981355Y-55835178D01*
X112197588Y-55640269D01*
X112371641Y-55406920D01*
X112496825Y-55144099D01*
X112541476Y-54996890D01*
X112420155Y-54767000D01*
X111227000Y-54767000D01*
X111227000Y-54787000D01*
X110973000Y-54787000D01*
X110973000Y-54767000D01*
X109779845Y-54767000D01*
X109658524Y-54996890D01*
X109703175Y-55144099D01*
X109828359Y-55406920D01*
X110002412Y-55640269D01*
X110218645Y-55835178D01*
X110335534Y-55904805D01*
X110153368Y-56026525D01*
X109946525Y-56233368D01*
X109784010Y-56476589D01*
X109672068Y-56746842D01*
X109615000Y-57033740D01*
X109615000Y-57326260D01*
X109672068Y-57613158D01*
X109784010Y-57883411D01*
X109946525Y-58126632D01*
X110153368Y-58333475D01*
X110327760Y-58450000D01*
X110153368Y-58566525D01*
X109946525Y-58773368D01*
X109784010Y-59016589D01*
X109672068Y-59286842D01*
X109615000Y-59573740D01*
X109615000Y-59866260D01*
X109672068Y-60153158D01*
X109784010Y-60423411D01*
X109946525Y-60666632D01*
X110153368Y-60873475D01*
X110335534Y-60995195D01*
X110218645Y-61064822D01*
X110002412Y-61259731D01*
X109828359Y-61493080D01*
X109703175Y-61755901D01*
X109658524Y-61903110D01*
X109779845Y-62133000D01*
X110973000Y-62133000D01*
X110973000Y-62113000D01*
X111227000Y-62113000D01*
X111227000Y-62133000D01*
X111247000Y-62133000D01*
X111247000Y-62387000D01*
X111227000Y-62387000D01*
X111227000Y-62407000D01*
X110973000Y-62407000D01*
X110973000Y-62387000D01*
X109779845Y-62387000D01*
X109658524Y-62616890D01*
X109703175Y-62764099D01*
X109828359Y-63026920D01*
X110002412Y-63260269D01*
X110218645Y-63455178D01*
X110335534Y-63524805D01*
X110153368Y-63646525D01*
X109946525Y-63853368D01*
X109784010Y-64096589D01*
X109672068Y-64366842D01*
X109615000Y-64653740D01*
X109615000Y-64946260D01*
X109672068Y-65233158D01*
X109784010Y-65503411D01*
X109946525Y-65746632D01*
X110153368Y-65953475D01*
X110327760Y-66070000D01*
X110153368Y-66186525D01*
X109946525Y-66393368D01*
X109784010Y-66636589D01*
X109672068Y-66906842D01*
X109615000Y-67193740D01*
X109615000Y-67486260D01*
X109672068Y-67773158D01*
X109784010Y-68043411D01*
X109946525Y-68286632D01*
X110153368Y-68493475D01*
X110327760Y-68610000D01*
X110153368Y-68726525D01*
X109946525Y-68933368D01*
X109784010Y-69176589D01*
X109672068Y-69446842D01*
X109615000Y-69733740D01*
X109615000Y-70026260D01*
X109672068Y-70313158D01*
X109784010Y-70583411D01*
X109946525Y-70826632D01*
X110153368Y-71033475D01*
X110396589Y-71195990D01*
X110666842Y-71307932D01*
X110953740Y-71365000D01*
X111246260Y-71365000D01*
X111533158Y-71307932D01*
X111803411Y-71195990D01*
X112046632Y-71033475D01*
X112253475Y-70826632D01*
X112415990Y-70583411D01*
X112527932Y-70313158D01*
X112585000Y-70026260D01*
X112585000Y-69733740D01*
X112527932Y-69446842D01*
X112415990Y-69176589D01*
X112253475Y-68933368D01*
X112046632Y-68726525D01*
X111872240Y-68610000D01*
X112046632Y-68493475D01*
X112253475Y-68286632D01*
X112415990Y-68043411D01*
X112527932Y-67773158D01*
X112585000Y-67486260D01*
X112585000Y-67193740D01*
X112527932Y-66906842D01*
X112415990Y-66636589D01*
X112253475Y-66393368D01*
X112046632Y-66186525D01*
X111872240Y-66070000D01*
X112046632Y-65953475D01*
X112253475Y-65746632D01*
X112415990Y-65503411D01*
X112527932Y-65233158D01*
X112585000Y-64946260D01*
X112585000Y-64653740D01*
X112527932Y-64366842D01*
X112415990Y-64096589D01*
X112253475Y-63853368D01*
X112046632Y-63646525D01*
X111864466Y-63524805D01*
X111981355Y-63455178D01*
X112197588Y-63260269D01*
X112371641Y-63026920D01*
X112496825Y-62764099D01*
X112541476Y-62616890D01*
X112420156Y-62387002D01*
X112585000Y-62387002D01*
X112585000Y-62279801D01*
X114997389Y-64692191D01*
X114997390Y-71906492D01*
X114810757Y-72031196D01*
X114603914Y-72238039D01*
X114487389Y-72412431D01*
X114370864Y-72238039D01*
X114164021Y-72031196D01*
X113920800Y-71868681D01*
X113650547Y-71756739D01*
X113363649Y-71699671D01*
X113071129Y-71699671D01*
X112784231Y-71756739D01*
X112513978Y-71868681D01*
X112270757Y-72031196D01*
X112063914Y-72238039D01*
X111947389Y-72412431D01*
X111830864Y-72238039D01*
X111624021Y-72031196D01*
X111380800Y-71868681D01*
X111110547Y-71756739D01*
X110823649Y-71699671D01*
X110531129Y-71699671D01*
X110244231Y-71756739D01*
X109973978Y-71868681D01*
X109730757Y-72031196D01*
X109523914Y-72238039D01*
X109361399Y-72481260D01*
X109249457Y-72751513D01*
X109192389Y-73038411D01*
X109192389Y-73330931D01*
X109249457Y-73617829D01*
X109361399Y-73888082D01*
X109523914Y-74131303D01*
X109730757Y-74338146D01*
X109973978Y-74500661D01*
X110244231Y-74612603D01*
X110531129Y-74669671D01*
X110823649Y-74669671D01*
X111110547Y-74612603D01*
X111380800Y-74500661D01*
X111624021Y-74338146D01*
X111830864Y-74131303D01*
X111947389Y-73956911D01*
X112063914Y-74131303D01*
X112270757Y-74338146D01*
X112513978Y-74500661D01*
X112784231Y-74612603D01*
X113071129Y-74669671D01*
X113197588Y-74669671D01*
X111627259Y-76240000D01*
X108628527Y-76240000D01*
X108758932Y-76081101D01*
X108892182Y-75831808D01*
X108974236Y-75561309D01*
X109001943Y-75280000D01*
X108974236Y-74998691D01*
X108892182Y-74728192D01*
X108758932Y-74478899D01*
X108579608Y-74260392D01*
X108361101Y-74081068D01*
X108231655Y-74011878D01*
X108249227Y-74004430D01*
X108482662Y-73845673D01*
X108680639Y-73644425D01*
X108835551Y-73408421D01*
X108941444Y-73146730D01*
X108951904Y-73089039D01*
X108829915Y-72867000D01*
X107487000Y-72867000D01*
X107487000Y-72887000D01*
X107233000Y-72887000D01*
X107233000Y-72867000D01*
X107213000Y-72867000D01*
X107213000Y-72613000D01*
X107233000Y-72613000D01*
X107233000Y-72593000D01*
X107487000Y-72593000D01*
X107487000Y-72613000D01*
X108829915Y-72613000D01*
X108951904Y-72390961D01*
X108941444Y-72333270D01*
X108835551Y-72071579D01*
X108680639Y-71835575D01*
X108482662Y-71634327D01*
X108249227Y-71475570D01*
X108231655Y-71468122D01*
X108361101Y-71398932D01*
X108579608Y-71219608D01*
X108758932Y-71001101D01*
X108892182Y-70751808D01*
X108974236Y-70481309D01*
X109001943Y-70200000D01*
X108974236Y-69918691D01*
X108892182Y-69648192D01*
X108758932Y-69398899D01*
X108579608Y-69180392D01*
X108361101Y-69001068D01*
X108228142Y-68930000D01*
X108361101Y-68858932D01*
X108579608Y-68679608D01*
X108758932Y-68461101D01*
X108892182Y-68211808D01*
X108974236Y-67941309D01*
X109001943Y-67660000D01*
X108974236Y-67378691D01*
X108892182Y-67108192D01*
X108758932Y-66858899D01*
X108579608Y-66640392D01*
X108361101Y-66461068D01*
X108228142Y-66390000D01*
X108361101Y-66318932D01*
X108579608Y-66139608D01*
X108758932Y-65921101D01*
X108892182Y-65671808D01*
X108974236Y-65401309D01*
X109001943Y-65120000D01*
X108974236Y-64838691D01*
X108892182Y-64568192D01*
X108758932Y-64318899D01*
X108579608Y-64100392D01*
X108361101Y-63921068D01*
X108228142Y-63850000D01*
X108361101Y-63778932D01*
X108579608Y-63599608D01*
X108758932Y-63381101D01*
X108892182Y-63131808D01*
X108974236Y-62861309D01*
X109001943Y-62580000D01*
X108974236Y-62298691D01*
X108892182Y-62028192D01*
X108758932Y-61778899D01*
X108579608Y-61560392D01*
X108361101Y-61381068D01*
X108228142Y-61310000D01*
X108361101Y-61238932D01*
X108579608Y-61059608D01*
X108758932Y-60841101D01*
X108892182Y-60591808D01*
X108974236Y-60321309D01*
X109001943Y-60040000D01*
X108974236Y-59758691D01*
X108892182Y-59488192D01*
X108758932Y-59238899D01*
X108579608Y-59020392D01*
X108361101Y-58841068D01*
X108228142Y-58770000D01*
X108361101Y-58698932D01*
X108579608Y-58519608D01*
X108758932Y-58301101D01*
X108892182Y-58051808D01*
X108974236Y-57781309D01*
X109001943Y-57500000D01*
X108974236Y-57218691D01*
X108892182Y-56948192D01*
X108758932Y-56698899D01*
X108579608Y-56480392D01*
X108361101Y-56301068D01*
X108111808Y-56167818D01*
X107841309Y-56085764D01*
X107630492Y-56065000D01*
X107089508Y-56065000D01*
X106878691Y-56085764D01*
X106608192Y-56167818D01*
X106358899Y-56301068D01*
X106140392Y-56480392D01*
X105961068Y-56698899D01*
X105827818Y-56948192D01*
X105745764Y-57218691D01*
X105718057Y-57500000D01*
X105745764Y-57781309D01*
X105827818Y-58051808D01*
X105961068Y-58301101D01*
X106140392Y-58519608D01*
X106358899Y-58698932D01*
X106491858Y-58770000D01*
X106358899Y-58841068D01*
X106140392Y-59020392D01*
X105961068Y-59238899D01*
X105827818Y-59488192D01*
X105745764Y-59758691D01*
X105718057Y-60040000D01*
X105745764Y-60321309D01*
X105827818Y-60591808D01*
X105961068Y-60841101D01*
X106140392Y-61059608D01*
X106358899Y-61238932D01*
X106491858Y-61310000D01*
X106358899Y-61381068D01*
X106140392Y-61560392D01*
X105961068Y-61778899D01*
X105827818Y-62028192D01*
X105745764Y-62298691D01*
X105718057Y-62580000D01*
X105745764Y-62861309D01*
X105805841Y-63059358D01*
X102489003Y-66376196D01*
X102459999Y-66399999D01*
X102404871Y-66467174D01*
X102365026Y-66515724D01*
X102300422Y-66636589D01*
X102294454Y-66647754D01*
X102250997Y-66791015D01*
X102240000Y-66902668D01*
X102240000Y-66902678D01*
X102236324Y-66940000D01*
X85942282Y-66940000D01*
X85898932Y-66858899D01*
X85719608Y-66640392D01*
X85501101Y-66461068D01*
X85368142Y-66390000D01*
X85501101Y-66318932D01*
X85719608Y-66139608D01*
X85898932Y-65921101D01*
X86032182Y-65671808D01*
X86114236Y-65401309D01*
X86141943Y-65120000D01*
X86114236Y-64838691D01*
X86032182Y-64568192D01*
X85898932Y-64318899D01*
X85719608Y-64100392D01*
X85501101Y-63921068D01*
X85368142Y-63850000D01*
X85501101Y-63778932D01*
X85719608Y-63599608D01*
X85898932Y-63381101D01*
X86032182Y-63131808D01*
X86114236Y-62861309D01*
X86141943Y-62580000D01*
X86114236Y-62298691D01*
X86032182Y-62028192D01*
X85898932Y-61778899D01*
X85719608Y-61560392D01*
X85501101Y-61381068D01*
X85368142Y-61310000D01*
X85501101Y-61238932D01*
X85719608Y-61059608D01*
X85898932Y-60841101D01*
X86032182Y-60591808D01*
X86114236Y-60321309D01*
X86141943Y-60040000D01*
X86114236Y-59758691D01*
X86032182Y-59488192D01*
X85898932Y-59238899D01*
X85766524Y-59077559D01*
X85854494Y-59030537D01*
X85951185Y-58951185D01*
X86030537Y-58854494D01*
X86089502Y-58744180D01*
X86125812Y-58624482D01*
X86138072Y-58500000D01*
X86138072Y-56500000D01*
X86125812Y-56375518D01*
X86089502Y-56255820D01*
X86030537Y-56145506D01*
X85951185Y-56048815D01*
X85854494Y-55969463D01*
X85744180Y-55910498D01*
X85624482Y-55874188D01*
X85500000Y-55861928D01*
X83500000Y-55861928D01*
X83375518Y-55874188D01*
X83255820Y-55910498D01*
X83145506Y-55969463D01*
X83048815Y-56048815D01*
X82969463Y-56145506D01*
X82910498Y-56255820D01*
X82874188Y-56375518D01*
X82861928Y-56500000D01*
X82861928Y-58500000D01*
X82874188Y-58624482D01*
X82910498Y-58744180D01*
X82969463Y-58854494D01*
X83048815Y-58951185D01*
X83145506Y-59030537D01*
X83233476Y-59077559D01*
X83101068Y-59238899D01*
X82967818Y-59488192D01*
X82885764Y-59758691D01*
X82858057Y-60040000D01*
X82660000Y-60040000D01*
X82660000Y-51250000D01*
X109611928Y-51250000D01*
X109611928Y-52950000D01*
X109624188Y-53074482D01*
X109660498Y-53194180D01*
X109719463Y-53304494D01*
X109798815Y-53401185D01*
X109895506Y-53480537D01*
X110005820Y-53539502D01*
X110086466Y-53563966D01*
X110002412Y-53639731D01*
X109828359Y-53873080D01*
X109703175Y-54135901D01*
X109658524Y-54283110D01*
X109779845Y-54513000D01*
X110973000Y-54513000D01*
X110973000Y-54493000D01*
X111227000Y-54493000D01*
X111227000Y-54513000D01*
X112420155Y-54513000D01*
X112541476Y-54283110D01*
X112496825Y-54135901D01*
X112371641Y-53873080D01*
X112197588Y-53639731D01*
X112113534Y-53563966D01*
X112194180Y-53539502D01*
X112304494Y-53480537D01*
X112401185Y-53401185D01*
X112480537Y-53304494D01*
X112539502Y-53194180D01*
X112575812Y-53074482D01*
X112588072Y-52950000D01*
X112588072Y-51250000D01*
X112575812Y-51125518D01*
X112539502Y-51005820D01*
X112480537Y-50895506D01*
X112401185Y-50798815D01*
X112304494Y-50719463D01*
X112194180Y-50660498D01*
X112074482Y-50624188D01*
X111950000Y-50611928D01*
X110250000Y-50611928D01*
X110125518Y-50624188D01*
X110005820Y-50660498D01*
X109895506Y-50719463D01*
X109798815Y-50798815D01*
X109719463Y-50895506D01*
X109660498Y-51005820D01*
X109624188Y-51125518D01*
X109611928Y-51250000D01*
X82660000Y-51250000D01*
X82660000Y-40660000D01*
X125340000Y-40660000D01*
X125340001Y-84340000D01*
%TA.AperFunction,Conductor*%
D17*
G36*
X125340001Y-84340000D02*
G01*
X82660000Y-84340000D01*
X82660000Y-60040000D01*
X82858057Y-60040000D01*
X82885764Y-60321309D01*
X82967818Y-60591808D01*
X83101068Y-60841101D01*
X83280392Y-61059608D01*
X83498899Y-61238932D01*
X83631858Y-61310000D01*
X83498899Y-61381068D01*
X83280392Y-61560392D01*
X83101068Y-61778899D01*
X82967818Y-62028192D01*
X82885764Y-62298691D01*
X82858057Y-62580000D01*
X82885764Y-62861309D01*
X82967818Y-63131808D01*
X83101068Y-63381101D01*
X83280392Y-63599608D01*
X83498899Y-63778932D01*
X83631858Y-63850000D01*
X83498899Y-63921068D01*
X83280392Y-64100392D01*
X83101068Y-64318899D01*
X82967818Y-64568192D01*
X82885764Y-64838691D01*
X82858057Y-65120000D01*
X82885764Y-65401309D01*
X82967818Y-65671808D01*
X83101068Y-65921101D01*
X83280392Y-66139608D01*
X83498899Y-66318932D01*
X83631858Y-66390000D01*
X83498899Y-66461068D01*
X83280392Y-66640392D01*
X83101068Y-66858899D01*
X82967818Y-67108192D01*
X82885764Y-67378691D01*
X82858057Y-67660000D01*
X82885764Y-67941309D01*
X82967818Y-68211808D01*
X83101068Y-68461101D01*
X83280392Y-68679608D01*
X83498899Y-68858932D01*
X83631858Y-68930000D01*
X83498899Y-69001068D01*
X83280392Y-69180392D01*
X83101068Y-69398899D01*
X82967818Y-69648192D01*
X82885764Y-69918691D01*
X82858057Y-70200000D01*
X82885764Y-70481309D01*
X82967818Y-70751808D01*
X83101068Y-71001101D01*
X83280392Y-71219608D01*
X83498899Y-71398932D01*
X83631858Y-71470000D01*
X83498899Y-71541068D01*
X83280392Y-71720392D01*
X83101068Y-71938899D01*
X82967818Y-72188192D01*
X82885764Y-72458691D01*
X82858057Y-72740000D01*
X82885764Y-73021309D01*
X82967818Y-73291808D01*
X83101068Y-73541101D01*
X83280392Y-73759608D01*
X83498899Y-73938932D01*
X83631858Y-74010000D01*
X83498899Y-74081068D01*
X83280392Y-74260392D01*
X83101068Y-74478899D01*
X82967818Y-74728192D01*
X82885764Y-74998691D01*
X82858057Y-75280000D01*
X82885764Y-75561309D01*
X82967818Y-75831808D01*
X83101068Y-76081101D01*
X83280392Y-76299608D01*
X83498899Y-76478932D01*
X83748192Y-76612182D01*
X84018691Y-76694236D01*
X84229508Y-76715000D01*
X84770492Y-76715000D01*
X84981309Y-76694236D01*
X85251808Y-76612182D01*
X85501101Y-76478932D01*
X85719608Y-76299608D01*
X85898932Y-76081101D01*
X86032182Y-75831808D01*
X86114236Y-75561309D01*
X86141943Y-75280000D01*
X86114236Y-74998691D01*
X86032182Y-74728192D01*
X85898932Y-74478899D01*
X85719608Y-74260392D01*
X85501101Y-74081068D01*
X85368142Y-74010000D01*
X85501101Y-73938932D01*
X85719608Y-73759608D01*
X85898932Y-73541101D01*
X86032182Y-73291808D01*
X86114236Y-73021309D01*
X86141943Y-72740000D01*
X86114236Y-72458691D01*
X86032182Y-72188192D01*
X85898932Y-71938899D01*
X85719608Y-71720392D01*
X85501101Y-71541068D01*
X85368142Y-71470000D01*
X85501101Y-71398932D01*
X85719608Y-71219608D01*
X85898932Y-71001101D01*
X86032182Y-70751808D01*
X86114236Y-70481309D01*
X86141943Y-70200000D01*
X86114236Y-69918691D01*
X86032182Y-69648192D01*
X85898932Y-69398899D01*
X85719608Y-69180392D01*
X85501101Y-69001068D01*
X85368142Y-68930000D01*
X85501101Y-68858932D01*
X85719608Y-68679608D01*
X85898932Y-68461101D01*
X86032182Y-68211808D01*
X86114236Y-67941309D01*
X86141943Y-67660000D01*
X86114236Y-67378691D01*
X86032182Y-67108192D01*
X85942282Y-66940000D01*
X102236324Y-66940000D01*
X102240000Y-66977322D01*
X102240001Y-76962668D01*
X102236324Y-77000000D01*
X102250998Y-77148985D01*
X102294454Y-77292246D01*
X102365026Y-77424276D01*
X102436201Y-77511002D01*
X102460000Y-77540001D01*
X102488998Y-77563799D01*
X104436201Y-79511003D01*
X104459999Y-79540001D01*
X104488997Y-79563799D01*
X104575723Y-79634974D01*
X104707753Y-79705546D01*
X104851014Y-79749003D01*
X104962667Y-79760000D01*
X104962676Y-79760000D01*
X104999999Y-79763676D01*
X105037322Y-79760000D01*
X112444738Y-79760000D01*
X112482060Y-79763676D01*
X112519382Y-79760000D01*
X112519393Y-79760000D01*
X112631046Y-79749003D01*
X112774307Y-79705546D01*
X112906336Y-79634974D01*
X113022061Y-79540001D01*
X113045864Y-79510997D01*
X117930981Y-74625881D01*
X118151129Y-74669671D01*
X118443649Y-74669671D01*
X118730547Y-74612603D01*
X119000800Y-74500661D01*
X119244021Y-74338146D01*
X119450864Y-74131303D01*
X119572584Y-73949137D01*
X119642211Y-74066026D01*
X119837120Y-74282259D01*
X120070469Y-74456312D01*
X120333290Y-74581496D01*
X120480499Y-74626147D01*
X120710389Y-74504826D01*
X120710389Y-73311671D01*
X120690389Y-73311671D01*
X120690389Y-73057671D01*
X120710389Y-73057671D01*
X120710389Y-71864516D01*
X120964389Y-71864516D01*
X120964389Y-73057671D01*
X120984389Y-73057671D01*
X120984389Y-73311671D01*
X120964389Y-73311671D01*
X120964389Y-74504826D01*
X121194279Y-74626147D01*
X121341488Y-74581496D01*
X121604309Y-74456312D01*
X121837658Y-74282259D01*
X121913423Y-74198205D01*
X121937887Y-74278851D01*
X121996852Y-74389165D01*
X122076204Y-74485856D01*
X122172895Y-74565208D01*
X122283209Y-74624173D01*
X122402907Y-74660483D01*
X122527389Y-74672743D01*
X124227389Y-74672743D01*
X124351871Y-74660483D01*
X124471569Y-74624173D01*
X124581883Y-74565208D01*
X124678574Y-74485856D01*
X124757926Y-74389165D01*
X124816891Y-74278851D01*
X124853201Y-74159153D01*
X124865461Y-74034671D01*
X124865461Y-72334671D01*
X124853201Y-72210189D01*
X124816891Y-72090491D01*
X124757926Y-71980177D01*
X124678574Y-71883486D01*
X124581883Y-71804134D01*
X124471569Y-71745169D01*
X124351871Y-71708859D01*
X124227389Y-71696599D01*
X122527389Y-71696599D01*
X122402907Y-71708859D01*
X122283209Y-71745169D01*
X122172895Y-71804134D01*
X122076204Y-71883486D01*
X121996852Y-71980177D01*
X121937887Y-72090491D01*
X121913423Y-72171137D01*
X121837658Y-72087083D01*
X121604309Y-71913030D01*
X121341488Y-71787846D01*
X121194279Y-71743195D01*
X120964389Y-71864516D01*
X120710389Y-71864516D01*
X120480499Y-71743195D01*
X120333290Y-71787846D01*
X120070469Y-71913030D01*
X119837120Y-72087083D01*
X119642211Y-72303316D01*
X119572584Y-72420205D01*
X119450864Y-72238039D01*
X119244021Y-72031196D01*
X119057389Y-71906493D01*
X119057389Y-64414711D01*
X119061065Y-64377388D01*
X119057389Y-64340065D01*
X119057389Y-64340056D01*
X119046392Y-64228403D01*
X119002935Y-64085142D01*
X118932364Y-63953114D01*
X118932363Y-63953112D01*
X118861188Y-63866386D01*
X118837390Y-63837388D01*
X118808393Y-63813591D01*
X112541209Y-57546408D01*
X112585000Y-57326260D01*
X112585000Y-57033740D01*
X112527932Y-56746842D01*
X112415990Y-56476589D01*
X112253475Y-56233368D01*
X112046632Y-56026525D01*
X111864466Y-55904805D01*
X111981355Y-55835178D01*
X112197588Y-55640269D01*
X112371641Y-55406920D01*
X112496825Y-55144099D01*
X112541476Y-54996890D01*
X112420155Y-54767000D01*
X111227000Y-54767000D01*
X111227000Y-54787000D01*
X110973000Y-54787000D01*
X110973000Y-54767000D01*
X109779845Y-54767000D01*
X109658524Y-54996890D01*
X109703175Y-55144099D01*
X109828359Y-55406920D01*
X110002412Y-55640269D01*
X110218645Y-55835178D01*
X110335534Y-55904805D01*
X110153368Y-56026525D01*
X109946525Y-56233368D01*
X109784010Y-56476589D01*
X109672068Y-56746842D01*
X109615000Y-57033740D01*
X109615000Y-57326260D01*
X109672068Y-57613158D01*
X109784010Y-57883411D01*
X109946525Y-58126632D01*
X110153368Y-58333475D01*
X110327760Y-58450000D01*
X110153368Y-58566525D01*
X109946525Y-58773368D01*
X109784010Y-59016589D01*
X109672068Y-59286842D01*
X109615000Y-59573740D01*
X109615000Y-59866260D01*
X109672068Y-60153158D01*
X109784010Y-60423411D01*
X109946525Y-60666632D01*
X110153368Y-60873475D01*
X110335534Y-60995195D01*
X110218645Y-61064822D01*
X110002412Y-61259731D01*
X109828359Y-61493080D01*
X109703175Y-61755901D01*
X109658524Y-61903110D01*
X109779845Y-62133000D01*
X110973000Y-62133000D01*
X110973000Y-62113000D01*
X111227000Y-62113000D01*
X111227000Y-62133000D01*
X111247000Y-62133000D01*
X111247000Y-62387000D01*
X111227000Y-62387000D01*
X111227000Y-62407000D01*
X110973000Y-62407000D01*
X110973000Y-62387000D01*
X109779845Y-62387000D01*
X109658524Y-62616890D01*
X109703175Y-62764099D01*
X109828359Y-63026920D01*
X110002412Y-63260269D01*
X110218645Y-63455178D01*
X110335534Y-63524805D01*
X110153368Y-63646525D01*
X109946525Y-63853368D01*
X109784010Y-64096589D01*
X109672068Y-64366842D01*
X109615000Y-64653740D01*
X109615000Y-64946260D01*
X109672068Y-65233158D01*
X109784010Y-65503411D01*
X109946525Y-65746632D01*
X110153368Y-65953475D01*
X110327760Y-66070000D01*
X110153368Y-66186525D01*
X109946525Y-66393368D01*
X109784010Y-66636589D01*
X109672068Y-66906842D01*
X109615000Y-67193740D01*
X109615000Y-67486260D01*
X109672068Y-67773158D01*
X109784010Y-68043411D01*
X109946525Y-68286632D01*
X110153368Y-68493475D01*
X110327760Y-68610000D01*
X110153368Y-68726525D01*
X109946525Y-68933368D01*
X109784010Y-69176589D01*
X109672068Y-69446842D01*
X109615000Y-69733740D01*
X109615000Y-70026260D01*
X109672068Y-70313158D01*
X109784010Y-70583411D01*
X109946525Y-70826632D01*
X110153368Y-71033475D01*
X110396589Y-71195990D01*
X110666842Y-71307932D01*
X110953740Y-71365000D01*
X111246260Y-71365000D01*
X111533158Y-71307932D01*
X111803411Y-71195990D01*
X112046632Y-71033475D01*
X112253475Y-70826632D01*
X112415990Y-70583411D01*
X112527932Y-70313158D01*
X112585000Y-70026260D01*
X112585000Y-69733740D01*
X112527932Y-69446842D01*
X112415990Y-69176589D01*
X112253475Y-68933368D01*
X112046632Y-68726525D01*
X111872240Y-68610000D01*
X112046632Y-68493475D01*
X112253475Y-68286632D01*
X112415990Y-68043411D01*
X112527932Y-67773158D01*
X112585000Y-67486260D01*
X112585000Y-67193740D01*
X112527932Y-66906842D01*
X112415990Y-66636589D01*
X112253475Y-66393368D01*
X112046632Y-66186525D01*
X111872240Y-66070000D01*
X112046632Y-65953475D01*
X112253475Y-65746632D01*
X112415990Y-65503411D01*
X112527932Y-65233158D01*
X112585000Y-64946260D01*
X112585000Y-64653740D01*
X112527932Y-64366842D01*
X112415990Y-64096589D01*
X112253475Y-63853368D01*
X112046632Y-63646525D01*
X111864466Y-63524805D01*
X111981355Y-63455178D01*
X112197588Y-63260269D01*
X112371641Y-63026920D01*
X112496825Y-62764099D01*
X112541476Y-62616890D01*
X112420156Y-62387002D01*
X112585000Y-62387002D01*
X112585000Y-62279801D01*
X114997389Y-64692191D01*
X114997390Y-71906492D01*
X114810757Y-72031196D01*
X114603914Y-72238039D01*
X114487389Y-72412431D01*
X114370864Y-72238039D01*
X114164021Y-72031196D01*
X113920800Y-71868681D01*
X113650547Y-71756739D01*
X113363649Y-71699671D01*
X113071129Y-71699671D01*
X112784231Y-71756739D01*
X112513978Y-71868681D01*
X112270757Y-72031196D01*
X112063914Y-72238039D01*
X111947389Y-72412431D01*
X111830864Y-72238039D01*
X111624021Y-72031196D01*
X111380800Y-71868681D01*
X111110547Y-71756739D01*
X110823649Y-71699671D01*
X110531129Y-71699671D01*
X110244231Y-71756739D01*
X109973978Y-71868681D01*
X109730757Y-72031196D01*
X109523914Y-72238039D01*
X109361399Y-72481260D01*
X109249457Y-72751513D01*
X109192389Y-73038411D01*
X109192389Y-73330931D01*
X109249457Y-73617829D01*
X109361399Y-73888082D01*
X109523914Y-74131303D01*
X109730757Y-74338146D01*
X109973978Y-74500661D01*
X110244231Y-74612603D01*
X110531129Y-74669671D01*
X110823649Y-74669671D01*
X111110547Y-74612603D01*
X111380800Y-74500661D01*
X111624021Y-74338146D01*
X111830864Y-74131303D01*
X111947389Y-73956911D01*
X112063914Y-74131303D01*
X112270757Y-74338146D01*
X112513978Y-74500661D01*
X112784231Y-74612603D01*
X113071129Y-74669671D01*
X113197588Y-74669671D01*
X111627259Y-76240000D01*
X108628527Y-76240000D01*
X108758932Y-76081101D01*
X108892182Y-75831808D01*
X108974236Y-75561309D01*
X109001943Y-75280000D01*
X108974236Y-74998691D01*
X108892182Y-74728192D01*
X108758932Y-74478899D01*
X108579608Y-74260392D01*
X108361101Y-74081068D01*
X108231655Y-74011878D01*
X108249227Y-74004430D01*
X108482662Y-73845673D01*
X108680639Y-73644425D01*
X108835551Y-73408421D01*
X108941444Y-73146730D01*
X108951904Y-73089039D01*
X108829915Y-72867000D01*
X107487000Y-72867000D01*
X107487000Y-72887000D01*
X107233000Y-72887000D01*
X107233000Y-72867000D01*
X107213000Y-72867000D01*
X107213000Y-72613000D01*
X107233000Y-72613000D01*
X107233000Y-72593000D01*
X107487000Y-72593000D01*
X107487000Y-72613000D01*
X108829915Y-72613000D01*
X108951904Y-72390961D01*
X108941444Y-72333270D01*
X108835551Y-72071579D01*
X108680639Y-71835575D01*
X108482662Y-71634327D01*
X108249227Y-71475570D01*
X108231655Y-71468122D01*
X108361101Y-71398932D01*
X108579608Y-71219608D01*
X108758932Y-71001101D01*
X108892182Y-70751808D01*
X108974236Y-70481309D01*
X109001943Y-70200000D01*
X108974236Y-69918691D01*
X108892182Y-69648192D01*
X108758932Y-69398899D01*
X108579608Y-69180392D01*
X108361101Y-69001068D01*
X108228142Y-68930000D01*
X108361101Y-68858932D01*
X108579608Y-68679608D01*
X108758932Y-68461101D01*
X108892182Y-68211808D01*
X108974236Y-67941309D01*
X109001943Y-67660000D01*
X108974236Y-67378691D01*
X108892182Y-67108192D01*
X108758932Y-66858899D01*
X108579608Y-66640392D01*
X108361101Y-66461068D01*
X108228142Y-66390000D01*
X108361101Y-66318932D01*
X108579608Y-66139608D01*
X108758932Y-65921101D01*
X108892182Y-65671808D01*
X108974236Y-65401309D01*
X109001943Y-65120000D01*
X108974236Y-64838691D01*
X108892182Y-64568192D01*
X108758932Y-64318899D01*
X108579608Y-64100392D01*
X108361101Y-63921068D01*
X108228142Y-63850000D01*
X108361101Y-63778932D01*
X108579608Y-63599608D01*
X108758932Y-63381101D01*
X108892182Y-63131808D01*
X108974236Y-62861309D01*
X109001943Y-62580000D01*
X108974236Y-62298691D01*
X108892182Y-62028192D01*
X108758932Y-61778899D01*
X108579608Y-61560392D01*
X108361101Y-61381068D01*
X108228142Y-61310000D01*
X108361101Y-61238932D01*
X108579608Y-61059608D01*
X108758932Y-60841101D01*
X108892182Y-60591808D01*
X108974236Y-60321309D01*
X109001943Y-60040000D01*
X108974236Y-59758691D01*
X108892182Y-59488192D01*
X108758932Y-59238899D01*
X108579608Y-59020392D01*
X108361101Y-58841068D01*
X108228142Y-58770000D01*
X108361101Y-58698932D01*
X108579608Y-58519608D01*
X108758932Y-58301101D01*
X108892182Y-58051808D01*
X108974236Y-57781309D01*
X109001943Y-57500000D01*
X108974236Y-57218691D01*
X108892182Y-56948192D01*
X108758932Y-56698899D01*
X108579608Y-56480392D01*
X108361101Y-56301068D01*
X108111808Y-56167818D01*
X107841309Y-56085764D01*
X107630492Y-56065000D01*
X107089508Y-56065000D01*
X106878691Y-56085764D01*
X106608192Y-56167818D01*
X106358899Y-56301068D01*
X106140392Y-56480392D01*
X105961068Y-56698899D01*
X105827818Y-56948192D01*
X105745764Y-57218691D01*
X105718057Y-57500000D01*
X105745764Y-57781309D01*
X105827818Y-58051808D01*
X105961068Y-58301101D01*
X106140392Y-58519608D01*
X106358899Y-58698932D01*
X106491858Y-58770000D01*
X106358899Y-58841068D01*
X106140392Y-59020392D01*
X105961068Y-59238899D01*
X105827818Y-59488192D01*
X105745764Y-59758691D01*
X105718057Y-60040000D01*
X105745764Y-60321309D01*
X105827818Y-60591808D01*
X105961068Y-60841101D01*
X106140392Y-61059608D01*
X106358899Y-61238932D01*
X106491858Y-61310000D01*
X106358899Y-61381068D01*
X106140392Y-61560392D01*
X105961068Y-61778899D01*
X105827818Y-62028192D01*
X105745764Y-62298691D01*
X105718057Y-62580000D01*
X105745764Y-62861309D01*
X105805841Y-63059358D01*
X102489003Y-66376196D01*
X102459999Y-66399999D01*
X102404871Y-66467174D01*
X102365026Y-66515724D01*
X102300422Y-66636589D01*
X102294454Y-66647754D01*
X102250997Y-66791015D01*
X102240000Y-66902668D01*
X102240000Y-66902678D01*
X102236324Y-66940000D01*
X85942282Y-66940000D01*
X85898932Y-66858899D01*
X85719608Y-66640392D01*
X85501101Y-66461068D01*
X85368142Y-66390000D01*
X85501101Y-66318932D01*
X85719608Y-66139608D01*
X85898932Y-65921101D01*
X86032182Y-65671808D01*
X86114236Y-65401309D01*
X86141943Y-65120000D01*
X86114236Y-64838691D01*
X86032182Y-64568192D01*
X85898932Y-64318899D01*
X85719608Y-64100392D01*
X85501101Y-63921068D01*
X85368142Y-63850000D01*
X85501101Y-63778932D01*
X85719608Y-63599608D01*
X85898932Y-63381101D01*
X86032182Y-63131808D01*
X86114236Y-62861309D01*
X86141943Y-62580000D01*
X86114236Y-62298691D01*
X86032182Y-62028192D01*
X85898932Y-61778899D01*
X85719608Y-61560392D01*
X85501101Y-61381068D01*
X85368142Y-61310000D01*
X85501101Y-61238932D01*
X85719608Y-61059608D01*
X85898932Y-60841101D01*
X86032182Y-60591808D01*
X86114236Y-60321309D01*
X86141943Y-60040000D01*
X86114236Y-59758691D01*
X86032182Y-59488192D01*
X85898932Y-59238899D01*
X85766524Y-59077559D01*
X85854494Y-59030537D01*
X85951185Y-58951185D01*
X86030537Y-58854494D01*
X86089502Y-58744180D01*
X86125812Y-58624482D01*
X86138072Y-58500000D01*
X86138072Y-56500000D01*
X86125812Y-56375518D01*
X86089502Y-56255820D01*
X86030537Y-56145506D01*
X85951185Y-56048815D01*
X85854494Y-55969463D01*
X85744180Y-55910498D01*
X85624482Y-55874188D01*
X85500000Y-55861928D01*
X83500000Y-55861928D01*
X83375518Y-55874188D01*
X83255820Y-55910498D01*
X83145506Y-55969463D01*
X83048815Y-56048815D01*
X82969463Y-56145506D01*
X82910498Y-56255820D01*
X82874188Y-56375518D01*
X82861928Y-56500000D01*
X82861928Y-58500000D01*
X82874188Y-58624482D01*
X82910498Y-58744180D01*
X82969463Y-58854494D01*
X83048815Y-58951185D01*
X83145506Y-59030537D01*
X83233476Y-59077559D01*
X83101068Y-59238899D01*
X82967818Y-59488192D01*
X82885764Y-59758691D01*
X82858057Y-60040000D01*
X82660000Y-60040000D01*
X82660000Y-51250000D01*
X109611928Y-51250000D01*
X109611928Y-52950000D01*
X109624188Y-53074482D01*
X109660498Y-53194180D01*
X109719463Y-53304494D01*
X109798815Y-53401185D01*
X109895506Y-53480537D01*
X110005820Y-53539502D01*
X110086466Y-53563966D01*
X110002412Y-53639731D01*
X109828359Y-53873080D01*
X109703175Y-54135901D01*
X109658524Y-54283110D01*
X109779845Y-54513000D01*
X110973000Y-54513000D01*
X110973000Y-54493000D01*
X111227000Y-54493000D01*
X111227000Y-54513000D01*
X112420155Y-54513000D01*
X112541476Y-54283110D01*
X112496825Y-54135901D01*
X112371641Y-53873080D01*
X112197588Y-53639731D01*
X112113534Y-53563966D01*
X112194180Y-53539502D01*
X112304494Y-53480537D01*
X112401185Y-53401185D01*
X112480537Y-53304494D01*
X112539502Y-53194180D01*
X112575812Y-53074482D01*
X112588072Y-52950000D01*
X112588072Y-51250000D01*
X112575812Y-51125518D01*
X112539502Y-51005820D01*
X112480537Y-50895506D01*
X112401185Y-50798815D01*
X112304494Y-50719463D01*
X112194180Y-50660498D01*
X112074482Y-50624188D01*
X111950000Y-50611928D01*
X110250000Y-50611928D01*
X110125518Y-50624188D01*
X110005820Y-50660498D01*
X109895506Y-50719463D01*
X109798815Y-50798815D01*
X109719463Y-50895506D01*
X109660498Y-51005820D01*
X109624188Y-51125518D01*
X109611928Y-51250000D01*
X82660000Y-51250000D01*
X82660000Y-40660000D01*
X125340000Y-40660000D01*
X125340001Y-84340000D01*
G37*
%TD.AperFunction*%
%TD*%
M02*
