%TF.GenerationSoftware,KiCad,Pcbnew,(5.1.9)-1*%
%TF.CreationDate,2021-05-29T23:11:52+02:00*%
%TF.ProjectId,Monitor,4d6f6e69-746f-4722-9e6b-696361645f70,rev?*%
%TF.SameCoordinates,Original*%
%TF.FileFunction,Legend,Top*%
%TF.FilePolarity,Positive*%
%FSLAX46Y46*%
G04 Gerber Fmt 4.6, Leading zero omitted, Abs format (unit mm)*
G04 Created by KiCad (PCBNEW (5.1.9)-1) date 2021-05-29 23:11:52*
%MOMM*%
%LPD*%
G01*
G04 APERTURE LIST*
%ADD10C,0.150000*%
%ADD11C,0.200000*%
%ADD12C,0.300000*%
%ADD13C,0.625000*%
%ADD14C,0.120000*%
G04 APERTURE END LIST*
D10*
X91380952Y-64702380D02*
X91380952Y-65416666D01*
X91333333Y-65559523D01*
X91238095Y-65654761D01*
X91095238Y-65702380D01*
X91000000Y-65702380D01*
X92333333Y-65702380D02*
X91857142Y-65702380D01*
X91857142Y-64702380D01*
X93238095Y-65607142D02*
X93190476Y-65654761D01*
X93047619Y-65702380D01*
X92952380Y-65702380D01*
X92809523Y-65654761D01*
X92714285Y-65559523D01*
X92666666Y-65464285D01*
X92619047Y-65273809D01*
X92619047Y-65130952D01*
X92666666Y-64940476D01*
X92714285Y-64845238D01*
X92809523Y-64750000D01*
X92952380Y-64702380D01*
X93047619Y-64702380D01*
X93190476Y-64750000D01*
X93238095Y-64797619D01*
X93952380Y-64702380D02*
X93952380Y-65416666D01*
X93904761Y-65559523D01*
X93809523Y-65654761D01*
X93666666Y-65702380D01*
X93571428Y-65702380D01*
X94904761Y-65702380D02*
X94428571Y-65702380D01*
X94428571Y-64702380D01*
X95809523Y-65607142D02*
X95761904Y-65654761D01*
X95619047Y-65702380D01*
X95523809Y-65702380D01*
X95380952Y-65654761D01*
X95285714Y-65559523D01*
X95238095Y-65464285D01*
X95190476Y-65273809D01*
X95190476Y-65130952D01*
X95238095Y-64940476D01*
X95285714Y-64845238D01*
X95380952Y-64750000D01*
X95523809Y-64702380D01*
X95619047Y-64702380D01*
X95761904Y-64750000D01*
X95809523Y-64797619D01*
X96523809Y-64702380D02*
X96523809Y-65416666D01*
X96476190Y-65559523D01*
X96380952Y-65654761D01*
X96238095Y-65702380D01*
X96142857Y-65702380D01*
X97476190Y-65702380D02*
X97000000Y-65702380D01*
X97000000Y-64702380D01*
X98380952Y-65607142D02*
X98333333Y-65654761D01*
X98190476Y-65702380D01*
X98095238Y-65702380D01*
X97952380Y-65654761D01*
X97857142Y-65559523D01*
X97809523Y-65464285D01*
X97761904Y-65273809D01*
X97761904Y-65130952D01*
X97809523Y-64940476D01*
X97857142Y-64845238D01*
X97952380Y-64750000D01*
X98095238Y-64702380D01*
X98190476Y-64702380D01*
X98333333Y-64750000D01*
X98380952Y-64797619D01*
X99095238Y-64702380D02*
X99095238Y-65416666D01*
X99047619Y-65559523D01*
X98952380Y-65654761D01*
X98809523Y-65702380D01*
X98714285Y-65702380D01*
X100047619Y-65702380D02*
X99571428Y-65702380D01*
X99571428Y-64702380D01*
X100952380Y-65607142D02*
X100904761Y-65654761D01*
X100761904Y-65702380D01*
X100666666Y-65702380D01*
X100523809Y-65654761D01*
X100428571Y-65559523D01*
X100380952Y-65464285D01*
X100333333Y-65273809D01*
X100333333Y-65130952D01*
X100380952Y-64940476D01*
X100428571Y-64845238D01*
X100523809Y-64750000D01*
X100666666Y-64702380D01*
X100761904Y-64702380D01*
X100904761Y-64750000D01*
X100952380Y-64797619D01*
D11*
X84550000Y-45773333D02*
X84883333Y-47173333D01*
X85150000Y-46173333D01*
X85416666Y-47173333D01*
X85750000Y-45773333D01*
X86283333Y-47173333D02*
X86283333Y-46240000D01*
X86283333Y-45773333D02*
X86216666Y-45840000D01*
X86283333Y-45906666D01*
X86350000Y-45840000D01*
X86283333Y-45773333D01*
X86283333Y-45906666D01*
X87483333Y-47106666D02*
X87350000Y-47173333D01*
X87083333Y-47173333D01*
X86950000Y-47106666D01*
X86883333Y-46973333D01*
X86883333Y-46440000D01*
X86950000Y-46306666D01*
X87083333Y-46240000D01*
X87350000Y-46240000D01*
X87483333Y-46306666D01*
X87550000Y-46440000D01*
X87550000Y-46573333D01*
X86883333Y-46706666D01*
X88150000Y-47173333D02*
X88150000Y-45773333D01*
X88150000Y-46306666D02*
X88283333Y-46240000D01*
X88550000Y-46240000D01*
X88683333Y-46306666D01*
X88750000Y-46373333D01*
X88816666Y-46506666D01*
X88816666Y-46906666D01*
X88750000Y-47040000D01*
X88683333Y-47106666D01*
X88550000Y-47173333D01*
X88283333Y-47173333D01*
X88150000Y-47106666D01*
X89950000Y-47106666D02*
X89816666Y-47173333D01*
X89550000Y-47173333D01*
X89416666Y-47106666D01*
X89350000Y-46973333D01*
X89350000Y-46440000D01*
X89416666Y-46306666D01*
X89550000Y-46240000D01*
X89816666Y-46240000D01*
X89950000Y-46306666D01*
X90016666Y-46440000D01*
X90016666Y-46573333D01*
X89350000Y-46706666D01*
X92150000Y-46440000D02*
X92350000Y-46506666D01*
X92416666Y-46573333D01*
X92483333Y-46706666D01*
X92483333Y-46906666D01*
X92416666Y-47040000D01*
X92350000Y-47106666D01*
X92216666Y-47173333D01*
X91683333Y-47173333D01*
X91683333Y-45773333D01*
X92150000Y-45773333D01*
X92283333Y-45840000D01*
X92350000Y-45906666D01*
X92416666Y-46040000D01*
X92416666Y-46173333D01*
X92350000Y-46306666D01*
X92283333Y-46373333D01*
X92150000Y-46440000D01*
X91683333Y-46440000D01*
X93616666Y-47106666D02*
X93483333Y-47173333D01*
X93216666Y-47173333D01*
X93083333Y-47106666D01*
X93016666Y-46973333D01*
X93016666Y-46440000D01*
X93083333Y-46306666D01*
X93216666Y-46240000D01*
X93483333Y-46240000D01*
X93616666Y-46306666D01*
X93683333Y-46440000D01*
X93683333Y-46573333D01*
X93016666Y-46706666D01*
X94816666Y-47106666D02*
X94683333Y-47173333D01*
X94416666Y-47173333D01*
X94283333Y-47106666D01*
X94216666Y-46973333D01*
X94216666Y-46440000D01*
X94283333Y-46306666D01*
X94416666Y-46240000D01*
X94683333Y-46240000D01*
X94816666Y-46306666D01*
X94883333Y-46440000D01*
X94883333Y-46573333D01*
X94216666Y-46706666D01*
X95283333Y-46240000D02*
X95816666Y-46240000D01*
X95483333Y-47173333D02*
X95483333Y-45973333D01*
X95550000Y-45840000D01*
X95683333Y-45773333D01*
X95816666Y-45773333D01*
X96083333Y-46240000D02*
X96616666Y-46240000D01*
X96283333Y-45773333D02*
X96283333Y-46973333D01*
X96350000Y-47106666D01*
X96483333Y-47173333D01*
X96616666Y-47173333D01*
X97083333Y-47173333D02*
X97083333Y-46240000D01*
X97083333Y-45773333D02*
X97016666Y-45840000D01*
X97083333Y-45906666D01*
X97150000Y-45840000D01*
X97083333Y-45773333D01*
X97083333Y-45906666D01*
X97750000Y-46240000D02*
X97750000Y-47173333D01*
X97750000Y-46373333D02*
X97816666Y-46306666D01*
X97950000Y-46240000D01*
X98150000Y-46240000D01*
X98283333Y-46306666D01*
X98350000Y-46440000D01*
X98350000Y-47173333D01*
X99016666Y-47173333D02*
X99016666Y-45773333D01*
X99150000Y-46640000D02*
X99550000Y-47173333D01*
X99550000Y-46240000D02*
X99016666Y-46773333D01*
X102283333Y-47173333D02*
X102283333Y-45773333D01*
X102616666Y-45773333D01*
X102816666Y-45840000D01*
X102950000Y-45973333D01*
X103016666Y-46106666D01*
X103083333Y-46373333D01*
X103083333Y-46573333D01*
X103016666Y-46840000D01*
X102950000Y-46973333D01*
X102816666Y-47106666D01*
X102616666Y-47173333D01*
X102283333Y-47173333D01*
X104283333Y-47173333D02*
X104283333Y-46440000D01*
X104216666Y-46306666D01*
X104083333Y-46240000D01*
X103816666Y-46240000D01*
X103683333Y-46306666D01*
X104283333Y-47106666D02*
X104150000Y-47173333D01*
X103816666Y-47173333D01*
X103683333Y-47106666D01*
X103616666Y-46973333D01*
X103616666Y-46840000D01*
X103683333Y-46706666D01*
X103816666Y-46640000D01*
X104150000Y-46640000D01*
X104283333Y-46573333D01*
X104950000Y-46240000D02*
X104950000Y-47173333D01*
X104950000Y-46373333D02*
X105016666Y-46306666D01*
X105150000Y-46240000D01*
X105350000Y-46240000D01*
X105483333Y-46306666D01*
X105550000Y-46440000D01*
X105550000Y-47173333D01*
X106216666Y-47173333D02*
X106216666Y-46240000D01*
X106216666Y-45773333D02*
X106150000Y-45840000D01*
X106216666Y-45906666D01*
X106283333Y-45840000D01*
X106216666Y-45773333D01*
X106216666Y-45906666D01*
X107416666Y-47106666D02*
X107283333Y-47173333D01*
X107016666Y-47173333D01*
X106883333Y-47106666D01*
X106816666Y-46973333D01*
X106816666Y-46440000D01*
X106883333Y-46306666D01*
X107016666Y-46240000D01*
X107283333Y-46240000D01*
X107416666Y-46306666D01*
X107483333Y-46440000D01*
X107483333Y-46573333D01*
X106816666Y-46706666D01*
X108283333Y-47173333D02*
X108150000Y-47106666D01*
X108083333Y-46973333D01*
X108083333Y-45773333D01*
X109883333Y-47173333D02*
X109883333Y-45773333D01*
X110683333Y-47173333D02*
X110083333Y-46373333D01*
X110683333Y-45773333D02*
X109883333Y-46573333D01*
X111283333Y-47173333D02*
X111283333Y-46240000D01*
X111283333Y-45773333D02*
X111216666Y-45840000D01*
X111283333Y-45906666D01*
X111350000Y-45840000D01*
X111283333Y-45773333D01*
X111283333Y-45906666D01*
X112483333Y-47106666D02*
X112350000Y-47173333D01*
X112083333Y-47173333D01*
X111950000Y-47106666D01*
X111883333Y-46973333D01*
X111883333Y-46440000D01*
X111950000Y-46306666D01*
X112083333Y-46240000D01*
X112350000Y-46240000D01*
X112483333Y-46306666D01*
X112550000Y-46440000D01*
X112550000Y-46573333D01*
X111883333Y-46706666D01*
X113016666Y-46240000D02*
X113350000Y-47173333D01*
X113683333Y-46240000D01*
X114216666Y-47173333D02*
X114216666Y-46240000D01*
X114216666Y-45773333D02*
X114150000Y-45840000D01*
X114216666Y-45906666D01*
X114283333Y-45840000D01*
X114216666Y-45773333D01*
X114216666Y-45906666D01*
X114683333Y-46240000D02*
X115216666Y-46240000D01*
X114883333Y-45773333D02*
X114883333Y-46973333D01*
X114950000Y-47106666D01*
X115083333Y-47173333D01*
X115216666Y-47173333D01*
D12*
X110494285Y-42408571D02*
X110994285Y-43908571D01*
X111494285Y-42408571D01*
X112780000Y-43908571D02*
X111922857Y-43908571D01*
X112351428Y-43908571D02*
X112351428Y-42408571D01*
X112208571Y-42622857D01*
X112065714Y-42765714D01*
X111922857Y-42837142D01*
X113422857Y-43765714D02*
X113494285Y-43837142D01*
X113422857Y-43908571D01*
X113351428Y-43837142D01*
X113422857Y-43765714D01*
X113422857Y-43908571D01*
X114422857Y-42408571D02*
X114565714Y-42408571D01*
X114708571Y-42480000D01*
X114780000Y-42551428D01*
X114851428Y-42694285D01*
X114922857Y-42980000D01*
X114922857Y-43337142D01*
X114851428Y-43622857D01*
X114780000Y-43765714D01*
X114708571Y-43837142D01*
X114565714Y-43908571D01*
X114422857Y-43908571D01*
X114280000Y-43837142D01*
X114208571Y-43765714D01*
X114137142Y-43622857D01*
X114065714Y-43337142D01*
X114065714Y-42980000D01*
X114137142Y-42694285D01*
X114208571Y-42551428D01*
X114280000Y-42480000D01*
X114422857Y-42408571D01*
D13*
X86210476Y-44122857D02*
X86091428Y-44241904D01*
X85734285Y-44360952D01*
X85496190Y-44360952D01*
X85139047Y-44241904D01*
X84900952Y-44003809D01*
X84781904Y-43765714D01*
X84662857Y-43289523D01*
X84662857Y-42932380D01*
X84781904Y-42456190D01*
X84900952Y-42218095D01*
X85139047Y-41980000D01*
X85496190Y-41860952D01*
X85734285Y-41860952D01*
X86091428Y-41980000D01*
X86210476Y-42099047D01*
X87758095Y-41860952D02*
X88234285Y-41860952D01*
X88472380Y-41980000D01*
X88710476Y-42218095D01*
X88829523Y-42694285D01*
X88829523Y-43527619D01*
X88710476Y-44003809D01*
X88472380Y-44241904D01*
X88234285Y-44360952D01*
X87758095Y-44360952D01*
X87520000Y-44241904D01*
X87281904Y-44003809D01*
X87162857Y-43527619D01*
X87162857Y-42694285D01*
X87281904Y-42218095D01*
X87520000Y-41980000D01*
X87758095Y-41860952D01*
X89781904Y-42099047D02*
X89900952Y-41980000D01*
X90139047Y-41860952D01*
X90734285Y-41860952D01*
X90972380Y-41980000D01*
X91091428Y-42099047D01*
X91210476Y-42337142D01*
X91210476Y-42575238D01*
X91091428Y-42932380D01*
X89662857Y-44360952D01*
X91210476Y-44360952D01*
X94067619Y-44241904D02*
X94424761Y-44360952D01*
X95020000Y-44360952D01*
X95258095Y-44241904D01*
X95377142Y-44122857D01*
X95496190Y-43884761D01*
X95496190Y-43646666D01*
X95377142Y-43408571D01*
X95258095Y-43289523D01*
X95020000Y-43170476D01*
X94543809Y-43051428D01*
X94305714Y-42932380D01*
X94186666Y-42813333D01*
X94067619Y-42575238D01*
X94067619Y-42337142D01*
X94186666Y-42099047D01*
X94305714Y-41980000D01*
X94543809Y-41860952D01*
X95139047Y-41860952D01*
X95496190Y-41980000D01*
X96567619Y-43051428D02*
X97400952Y-43051428D01*
X97758095Y-44360952D02*
X96567619Y-44360952D01*
X96567619Y-41860952D01*
X97758095Y-41860952D01*
X98829523Y-44360952D02*
X98829523Y-41860952D01*
X100258095Y-44360952D01*
X100258095Y-41860952D01*
X101329523Y-44241904D02*
X101686666Y-44360952D01*
X102281904Y-44360952D01*
X102520000Y-44241904D01*
X102639047Y-44122857D01*
X102758095Y-43884761D01*
X102758095Y-43646666D01*
X102639047Y-43408571D01*
X102520000Y-43289523D01*
X102281904Y-43170476D01*
X101805714Y-43051428D01*
X101567619Y-42932380D01*
X101448571Y-42813333D01*
X101329523Y-42575238D01*
X101329523Y-42337142D01*
X101448571Y-42099047D01*
X101567619Y-41980000D01*
X101805714Y-41860952D01*
X102400952Y-41860952D01*
X102758095Y-41980000D01*
X104305714Y-41860952D02*
X104781904Y-41860952D01*
X105020000Y-41980000D01*
X105258095Y-42218095D01*
X105377142Y-42694285D01*
X105377142Y-43527619D01*
X105258095Y-44003809D01*
X105020000Y-44241904D01*
X104781904Y-44360952D01*
X104305714Y-44360952D01*
X104067619Y-44241904D01*
X103829523Y-44003809D01*
X103710476Y-43527619D01*
X103710476Y-42694285D01*
X103829523Y-42218095D01*
X104067619Y-41980000D01*
X104305714Y-41860952D01*
X107877142Y-44360952D02*
X107043809Y-43170476D01*
X106448571Y-44360952D02*
X106448571Y-41860952D01*
X107400952Y-41860952D01*
X107639047Y-41980000D01*
X107758095Y-42099047D01*
X107877142Y-42337142D01*
X107877142Y-42694285D01*
X107758095Y-42932380D01*
X107639047Y-43051428D01*
X107400952Y-43170476D01*
X106448571Y-43170476D01*
D14*
%TO.C,J2*%
X109500000Y-51000000D02*
X124500000Y-51000000D01*
X124500000Y-51000000D02*
X124500000Y-71000000D01*
X124500000Y-71000000D02*
X109500000Y-71000000D01*
X109500000Y-51000000D02*
X109500000Y-71000000D01*
%TO.C,J1*%
X109400000Y-83500000D02*
X124600000Y-83500000D01*
X124600000Y-71500000D02*
X124600000Y-83500000D01*
X109400000Y-71500000D02*
X124600000Y-71500000D01*
X109400000Y-83500000D02*
X109400000Y-71500000D01*
%TO.C,U1*%
X85540000Y-83620000D02*
X108860000Y-83620000D01*
X83000000Y-76720000D02*
X83000000Y-51290000D01*
X108860000Y-83620000D02*
X108860000Y-51290000D01*
X106740000Y-49160000D02*
X85130000Y-49160000D01*
D10*
G36*
X81960000Y-56865000D02*
G01*
X81960000Y-58135000D01*
X82595000Y-57500000D01*
X81960000Y-56865000D01*
G37*
X81960000Y-56865000D02*
X81960000Y-58135000D01*
X82595000Y-57500000D01*
X81960000Y-56865000D01*
D14*
X83000000Y-76720000D02*
X85540000Y-76720000D01*
X85540000Y-76720000D02*
X85540000Y-83620000D01*
X106730000Y-49160000D02*
G75*
G02*
X108860000Y-51290000I0J-2130000D01*
G01*
X83000000Y-51290000D02*
G75*
G02*
X85130000Y-49160000I2130000J0D01*
G01*
%TO.C,D1*%
X123250000Y-40850000D02*
X123250000Y-48150000D01*
X117750000Y-40850000D02*
X117750000Y-48150000D01*
X117750000Y-48150000D02*
X118900000Y-48150000D01*
%TD*%
%TO.C,J2*%
D10*
X112961904Y-70066666D02*
X113438095Y-70066666D01*
X112866666Y-70352380D02*
X113200000Y-69352380D01*
X113533333Y-70352380D01*
X113866666Y-70352380D02*
X113866666Y-69352380D01*
X114104761Y-69352380D01*
X114247619Y-69400000D01*
X114342857Y-69495238D01*
X114390476Y-69590476D01*
X114438095Y-69780952D01*
X114438095Y-69923809D01*
X114390476Y-70114285D01*
X114342857Y-70209523D01*
X114247619Y-70304761D01*
X114104761Y-70352380D01*
X113866666Y-70352380D01*
X114866666Y-70352380D02*
X114866666Y-69352380D01*
X115104761Y-69352380D01*
X115247619Y-69400000D01*
X115342857Y-69495238D01*
X115390476Y-69590476D01*
X115438095Y-69780952D01*
X115438095Y-69923809D01*
X115390476Y-70114285D01*
X115342857Y-70209523D01*
X115247619Y-70304761D01*
X115104761Y-70352380D01*
X114866666Y-70352380D01*
X113452380Y-67752380D02*
X113119047Y-67276190D01*
X112880952Y-67752380D02*
X112880952Y-66752380D01*
X113261904Y-66752380D01*
X113357142Y-66800000D01*
X113404761Y-66847619D01*
X113452380Y-66942857D01*
X113452380Y-67085714D01*
X113404761Y-67180952D01*
X113357142Y-67228571D01*
X113261904Y-67276190D01*
X112880952Y-67276190D01*
X113833333Y-67704761D02*
X113976190Y-67752380D01*
X114214285Y-67752380D01*
X114309523Y-67704761D01*
X114357142Y-67657142D01*
X114404761Y-67561904D01*
X114404761Y-67466666D01*
X114357142Y-67371428D01*
X114309523Y-67323809D01*
X114214285Y-67276190D01*
X114023809Y-67228571D01*
X113928571Y-67180952D01*
X113880952Y-67133333D01*
X113833333Y-67038095D01*
X113833333Y-66942857D01*
X113880952Y-66847619D01*
X113928571Y-66800000D01*
X114023809Y-66752380D01*
X114261904Y-66752380D01*
X114404761Y-66800000D01*
X114690476Y-66752380D02*
X115261904Y-66752380D01*
X114976190Y-67752380D02*
X114976190Y-66752380D01*
X112895238Y-65252380D02*
X112895238Y-64252380D01*
X113371428Y-65252380D02*
X113371428Y-64252380D01*
X113942857Y-65252380D01*
X113942857Y-64252380D01*
X114276190Y-64252380D02*
X114847619Y-64252380D01*
X114561904Y-65252380D02*
X114561904Y-64252380D01*
X112842857Y-61652380D02*
X113080952Y-62652380D01*
X113271428Y-61938095D01*
X113461904Y-62652380D01*
X113700000Y-61652380D01*
X114033333Y-62366666D02*
X114509523Y-62366666D01*
X113938095Y-62652380D02*
X114271428Y-61652380D01*
X114604761Y-62652380D01*
X114938095Y-62652380D02*
X114938095Y-61652380D01*
X115509523Y-62652380D02*
X115080952Y-62080952D01*
X115509523Y-61652380D02*
X114938095Y-62223809D01*
X112885714Y-60104761D02*
X113028571Y-60152380D01*
X113266666Y-60152380D01*
X113361904Y-60104761D01*
X113409523Y-60057142D01*
X113457142Y-59961904D01*
X113457142Y-59866666D01*
X113409523Y-59771428D01*
X113361904Y-59723809D01*
X113266666Y-59676190D01*
X113076190Y-59628571D01*
X112980952Y-59580952D01*
X112933333Y-59533333D01*
X112885714Y-59438095D01*
X112885714Y-59342857D01*
X112933333Y-59247619D01*
X112980952Y-59200000D01*
X113076190Y-59152380D01*
X113314285Y-59152380D01*
X113457142Y-59200000D01*
X113885714Y-60152380D02*
X113885714Y-59152380D01*
X114123809Y-59152380D01*
X114266666Y-59200000D01*
X114361904Y-59295238D01*
X114409523Y-59390476D01*
X114457142Y-59580952D01*
X114457142Y-59723809D01*
X114409523Y-59914285D01*
X114361904Y-60009523D01*
X114266666Y-60104761D01*
X114123809Y-60152380D01*
X113885714Y-60152380D01*
X114838095Y-59866666D02*
X115314285Y-59866666D01*
X114742857Y-60152380D02*
X115076190Y-59152380D01*
X115409523Y-60152380D01*
X112909523Y-57504761D02*
X113052380Y-57552380D01*
X113290476Y-57552380D01*
X113385714Y-57504761D01*
X113433333Y-57457142D01*
X113480952Y-57361904D01*
X113480952Y-57266666D01*
X113433333Y-57171428D01*
X113385714Y-57123809D01*
X113290476Y-57076190D01*
X113100000Y-57028571D01*
X113004761Y-56980952D01*
X112957142Y-56933333D01*
X112909523Y-56838095D01*
X112909523Y-56742857D01*
X112957142Y-56647619D01*
X113004761Y-56600000D01*
X113100000Y-56552380D01*
X113338095Y-56552380D01*
X113480952Y-56600000D01*
X114480952Y-57457142D02*
X114433333Y-57504761D01*
X114290476Y-57552380D01*
X114195238Y-57552380D01*
X114052380Y-57504761D01*
X113957142Y-57409523D01*
X113909523Y-57314285D01*
X113861904Y-57123809D01*
X113861904Y-56980952D01*
X113909523Y-56790476D01*
X113957142Y-56695238D01*
X114052380Y-56600000D01*
X114195238Y-56552380D01*
X114290476Y-56552380D01*
X114433333Y-56600000D01*
X114480952Y-56647619D01*
X115385714Y-57552380D02*
X114909523Y-57552380D01*
X114909523Y-56552380D01*
X113438095Y-54100000D02*
X113342857Y-54052380D01*
X113200000Y-54052380D01*
X113057142Y-54100000D01*
X112961904Y-54195238D01*
X112914285Y-54290476D01*
X112866666Y-54480952D01*
X112866666Y-54623809D01*
X112914285Y-54814285D01*
X112961904Y-54909523D01*
X113057142Y-55004761D01*
X113200000Y-55052380D01*
X113295238Y-55052380D01*
X113438095Y-55004761D01*
X113485714Y-54957142D01*
X113485714Y-54623809D01*
X113295238Y-54623809D01*
X113914285Y-55052380D02*
X113914285Y-54052380D01*
X114485714Y-55052380D01*
X114485714Y-54052380D01*
X114961904Y-55052380D02*
X114961904Y-54052380D01*
X115200000Y-54052380D01*
X115342857Y-54100000D01*
X115438095Y-54195238D01*
X115485714Y-54290476D01*
X115533333Y-54480952D01*
X115533333Y-54623809D01*
X115485714Y-54814285D01*
X115438095Y-54909523D01*
X115342857Y-55004761D01*
X115200000Y-55052380D01*
X114961904Y-55052380D01*
X112866666Y-51552380D02*
X113200000Y-52552380D01*
X113533333Y-51552380D01*
X114438095Y-52457142D02*
X114390476Y-52504761D01*
X114247619Y-52552380D01*
X114152380Y-52552380D01*
X114009523Y-52504761D01*
X113914285Y-52409523D01*
X113866666Y-52314285D01*
X113819047Y-52123809D01*
X113819047Y-51980952D01*
X113866666Y-51790476D01*
X113914285Y-51695238D01*
X114009523Y-51600000D01*
X114152380Y-51552380D01*
X114247619Y-51552380D01*
X114390476Y-51600000D01*
X114438095Y-51647619D01*
X115438095Y-52457142D02*
X115390476Y-52504761D01*
X115247619Y-52552380D01*
X115152380Y-52552380D01*
X115009523Y-52504761D01*
X114914285Y-52409523D01*
X114866666Y-52314285D01*
X114819047Y-52123809D01*
X114819047Y-51980952D01*
X114866666Y-51790476D01*
X114914285Y-51695238D01*
X115009523Y-51600000D01*
X115152380Y-51552380D01*
X115247619Y-51552380D01*
X115390476Y-51600000D01*
X115438095Y-51647619D01*
%TO.C,J1*%
X111104761Y-77309523D02*
X111152380Y-77166666D01*
X111152380Y-76928571D01*
X111104761Y-76833333D01*
X111057142Y-76785714D01*
X110961904Y-76738095D01*
X110866666Y-76738095D01*
X110771428Y-76785714D01*
X110723809Y-76833333D01*
X110676190Y-76928571D01*
X110628571Y-77119047D01*
X110580952Y-77214285D01*
X110533333Y-77261904D01*
X110438095Y-77309523D01*
X110342857Y-77309523D01*
X110247619Y-77261904D01*
X110200000Y-77214285D01*
X110152380Y-77119047D01*
X110152380Y-76880952D01*
X110200000Y-76738095D01*
X111152380Y-76309523D02*
X110152380Y-76309523D01*
X110152380Y-76071428D01*
X110200000Y-75928571D01*
X110295238Y-75833333D01*
X110390476Y-75785714D01*
X110580952Y-75738095D01*
X110723809Y-75738095D01*
X110914285Y-75785714D01*
X111009523Y-75833333D01*
X111104761Y-75928571D01*
X111152380Y-76071428D01*
X111152380Y-76309523D01*
X110152380Y-75119047D02*
X110152380Y-74928571D01*
X110200000Y-74833333D01*
X110295238Y-74738095D01*
X110485714Y-74690476D01*
X110819047Y-74690476D01*
X111009523Y-74738095D01*
X111104761Y-74833333D01*
X111152380Y-74928571D01*
X111152380Y-75119047D01*
X111104761Y-75214285D01*
X111009523Y-75309523D01*
X110819047Y-75357142D01*
X110485714Y-75357142D01*
X110295238Y-75309523D01*
X110200000Y-75214285D01*
X110152380Y-75119047D01*
X113557142Y-76666666D02*
X113604761Y-76714285D01*
X113652380Y-76857142D01*
X113652380Y-76952380D01*
X113604761Y-77095238D01*
X113509523Y-77190476D01*
X113414285Y-77238095D01*
X113223809Y-77285714D01*
X113080952Y-77285714D01*
X112890476Y-77238095D01*
X112795238Y-77190476D01*
X112700000Y-77095238D01*
X112652380Y-76952380D01*
X112652380Y-76857142D01*
X112700000Y-76714285D01*
X112747619Y-76666666D01*
X113604761Y-76285714D02*
X113652380Y-76142857D01*
X113652380Y-75904761D01*
X113604761Y-75809523D01*
X113557142Y-75761904D01*
X113461904Y-75714285D01*
X113366666Y-75714285D01*
X113271428Y-75761904D01*
X113223809Y-75809523D01*
X113176190Y-75904761D01*
X113128571Y-76095238D01*
X113080952Y-76190476D01*
X113033333Y-76238095D01*
X112938095Y-76285714D01*
X112842857Y-76285714D01*
X112747619Y-76238095D01*
X112700000Y-76190476D01*
X112652380Y-76095238D01*
X112652380Y-75857142D01*
X112700000Y-75714285D01*
X113128571Y-74952380D02*
X113176190Y-74809523D01*
X113223809Y-74761904D01*
X113319047Y-74714285D01*
X113461904Y-74714285D01*
X113557142Y-74761904D01*
X113604761Y-74809523D01*
X113652380Y-74904761D01*
X113652380Y-75285714D01*
X112652380Y-75285714D01*
X112652380Y-74952380D01*
X112700000Y-74857142D01*
X112747619Y-74809523D01*
X112842857Y-74761904D01*
X112938095Y-74761904D01*
X113033333Y-74809523D01*
X113080952Y-74857142D01*
X113128571Y-74952380D01*
X113128571Y-75285714D01*
X116104761Y-77114285D02*
X116152380Y-76971428D01*
X116152380Y-76733333D01*
X116104761Y-76638095D01*
X116057142Y-76590476D01*
X115961904Y-76542857D01*
X115866666Y-76542857D01*
X115771428Y-76590476D01*
X115723809Y-76638095D01*
X115676190Y-76733333D01*
X115628571Y-76923809D01*
X115580952Y-77019047D01*
X115533333Y-77066666D01*
X115438095Y-77114285D01*
X115342857Y-77114285D01*
X115247619Y-77066666D01*
X115200000Y-77019047D01*
X115152380Y-76923809D01*
X115152380Y-76685714D01*
X115200000Y-76542857D01*
X116152380Y-76114285D02*
X115152380Y-76114285D01*
X115152380Y-75876190D01*
X115200000Y-75733333D01*
X115295238Y-75638095D01*
X115390476Y-75590476D01*
X115580952Y-75542857D01*
X115723809Y-75542857D01*
X115914285Y-75590476D01*
X116009523Y-75638095D01*
X116104761Y-75733333D01*
X116152380Y-75876190D01*
X116152380Y-76114285D01*
X115866666Y-75161904D02*
X115866666Y-74685714D01*
X116152380Y-75257142D02*
X115152380Y-74923809D01*
X116152380Y-74590476D01*
X118704761Y-77090476D02*
X118752380Y-76947619D01*
X118752380Y-76709523D01*
X118704761Y-76614285D01*
X118657142Y-76566666D01*
X118561904Y-76519047D01*
X118466666Y-76519047D01*
X118371428Y-76566666D01*
X118323809Y-76614285D01*
X118276190Y-76709523D01*
X118228571Y-76900000D01*
X118180952Y-76995238D01*
X118133333Y-77042857D01*
X118038095Y-77090476D01*
X117942857Y-77090476D01*
X117847619Y-77042857D01*
X117800000Y-76995238D01*
X117752380Y-76900000D01*
X117752380Y-76661904D01*
X117800000Y-76519047D01*
X118657142Y-75519047D02*
X118704761Y-75566666D01*
X118752380Y-75709523D01*
X118752380Y-75804761D01*
X118704761Y-75947619D01*
X118609523Y-76042857D01*
X118514285Y-76090476D01*
X118323809Y-76138095D01*
X118180952Y-76138095D01*
X117990476Y-76090476D01*
X117895238Y-76042857D01*
X117800000Y-75947619D01*
X117752380Y-75804761D01*
X117752380Y-75709523D01*
X117800000Y-75566666D01*
X117847619Y-75519047D01*
X118752380Y-74614285D02*
X118752380Y-75090476D01*
X117752380Y-75090476D01*
X120300000Y-76761904D02*
X120252380Y-76857142D01*
X120252380Y-77000000D01*
X120300000Y-77142857D01*
X120395238Y-77238095D01*
X120490476Y-77285714D01*
X120680952Y-77333333D01*
X120823809Y-77333333D01*
X121014285Y-77285714D01*
X121109523Y-77238095D01*
X121204761Y-77142857D01*
X121252380Y-77000000D01*
X121252380Y-76904761D01*
X121204761Y-76761904D01*
X121157142Y-76714285D01*
X120823809Y-76714285D01*
X120823809Y-76904761D01*
X121252380Y-76285714D02*
X120252380Y-76285714D01*
X121252380Y-75714285D01*
X120252380Y-75714285D01*
X121252380Y-75238095D02*
X120252380Y-75238095D01*
X120252380Y-75000000D01*
X120300000Y-74857142D01*
X120395238Y-74761904D01*
X120490476Y-74714285D01*
X120680952Y-74666666D01*
X120823809Y-74666666D01*
X121014285Y-74714285D01*
X121109523Y-74761904D01*
X121204761Y-74857142D01*
X121252380Y-75000000D01*
X121252380Y-75238095D01*
X122752380Y-77333333D02*
X123752380Y-77000000D01*
X122752380Y-76666666D01*
X123657142Y-75761904D02*
X123704761Y-75809523D01*
X123752380Y-75952380D01*
X123752380Y-76047619D01*
X123704761Y-76190476D01*
X123609523Y-76285714D01*
X123514285Y-76333333D01*
X123323809Y-76380952D01*
X123180952Y-76380952D01*
X122990476Y-76333333D01*
X122895238Y-76285714D01*
X122800000Y-76190476D01*
X122752380Y-76047619D01*
X122752380Y-75952380D01*
X122800000Y-75809523D01*
X122847619Y-75761904D01*
X123657142Y-74761904D02*
X123704761Y-74809523D01*
X123752380Y-74952380D01*
X123752380Y-75047619D01*
X123704761Y-75190476D01*
X123609523Y-75285714D01*
X123514285Y-75333333D01*
X123323809Y-75380952D01*
X123180952Y-75380952D01*
X122990476Y-75333333D01*
X122895238Y-75285714D01*
X122800000Y-75190476D01*
X122752380Y-75047619D01*
X122752380Y-74952380D01*
X122800000Y-74809523D01*
X122847619Y-74761904D01*
%TD*%
M02*
